<svg width="40" height="40" viewBox="0 0 40 40" fill="none" xmlns="http://www.w3.org/2000/svg">
<g clip-path="url(#clip0_1_1448)">
<path d="M19.9879 7.97046C15.3725 7.97046 11.6246 11.7266 11.6246 16.3338C11.6246 20.941 15.3725 24.7053 19.9879 24.7053C24.6033 24.7053 28.3512 20.9492 28.3512 16.342C28.3512 11.7348 24.6033 7.97046 19.9879 7.97046ZM19.9879 22.7004C16.4773 22.7004 13.6295 19.8444 13.6295 16.342C13.6295 12.8395 16.4855 9.98355 19.9879 9.98355C23.4904 9.98355 26.3463 12.8395 26.3463 16.342C26.3463 19.8444 23.4985 22.7004 19.9879 22.7004Z" fill="#3C3C3C"/>
<path d="M19.9879 0C19.7997 0 19.6033 0 19.4151 0.00818331C11.3463 0.286416 4.67693 6.55483 3.9077 14.5827C3.7604 16.1375 3.83405 17.7005 4.12046 19.1899C4.12046 19.1899 4.14501 19.3781 4.23503 19.73C4.48053 20.8347 4.84878 21.9067 5.31522 22.9051C6.97644 26.8412 10.618 32.9051 18.5231 39.4681C18.9404 39.8118 19.4642 40 20.0043 40C20.5444 40 21.0681 39.8118 21.4854 39.4681C29.3823 32.9133 33.0239 26.8412 34.6769 22.9378C35.1516 21.9149 35.5198 20.8347 35.7653 19.7381C35.8144 19.5417 35.8471 19.3781 35.8717 19.2226C36.0681 18.216 36.1663 17.1849 36.1663 16.1538C36.1499 7.25041 28.8995 0 19.9879 0ZM33.8831 18.8789C33.8831 18.8953 33.8586 19.0344 33.8013 19.2881C33.5804 20.2537 33.2612 21.1948 32.8357 22.1277C31.2563 25.8592 27.7866 31.6285 20.2007 37.9214C20.127 37.9787 20.0534 37.9951 19.9961 37.9951C19.947 37.9951 19.8651 37.9787 19.7915 37.9214C12.2056 31.6203 8.72766 25.8511 7.1401 22.0949C6.72275 21.1948 6.4036 20.2537 6.18266 19.2799C6.13356 19.0671 6.10901 18.9362 6.10082 18.8953C6.10082 18.8789 6.09264 18.8625 6.09264 18.8462C5.83896 17.5123 5.77349 16.1375 5.90442 14.7791C6.58364 7.74959 12.4183 2.25859 19.4887 2.01309C27.5165 1.73486 34.145 8.18331 34.145 16.162C34.145 17.0622 34.055 17.9624 33.8831 18.8789Z" fill="#3C3C3C"/>
</g>
<defs>
<clipPath id="clip0_1_1448">
<rect width="40" height="40" fill="white"/>
</clipPath>
</defs>
</svg>
