<svg width="40" height="40" viewBox="0 0 40 40" fill="none" xmlns="http://www.w3.org/2000/svg">
<g clip-path="url(#clip0_1_2154)">
<path d="M39.9918 19.132C39.9918 16.0639 37.4949 13.5588 34.4186 13.5588H25.8017V7.34905C25.8017 4.72155 25.0347 2.82844 23.5169 1.71869C21.1179 -0.0438538 17.8213 0.959818 17.6826 1.00878C17.2664 1.13934 16.9808 1.52285 16.9808 1.96349V8.94023C16.9808 14.4319 10.6079 16.3005 10.3386 16.3821C10.257 16.4066 10.1836 16.4311 10.1183 16.4719C9.64504 15.5253 8.66585 14.8725 7.53978 14.8725H2.8723C1.28927 14.8725 0 16.1618 0 17.7448V34.7093C0 36.2923 1.28927 37.5816 2.8723 37.5816H5.57324C6.12811 37.5816 6.57691 37.1328 6.57691 36.5779C6.57691 36.0231 6.11995 35.5824 5.57324 35.5824H2.8723C2.39086 35.5824 1.99918 35.1907 1.99918 34.7093V17.7448C1.99918 17.2634 2.39086 16.8717 2.8723 16.8717H7.54794C8.02938 16.8717 8.42105 17.2634 8.42105 17.7448V33.7464C8.42105 36.8146 10.918 39.3197 13.9943 39.3197H31.0649C34.8511 39.3197 37.2583 37.3368 37.6826 33.9096L39.9837 19.4666C39.9918 19.4176 40 19.3605 40 19.3115V19.132H39.9918ZM37.9927 19.2218L35.6997 33.624C35.3978 36.072 33.8392 37.3205 31.0649 37.3205H13.9943C12.0277 37.3205 10.4202 35.7211 10.4202 33.7464V18.316C10.5671 18.3486 10.7222 18.3405 10.8772 18.2997C11.2118 18.2099 18.98 15.9578 18.98 8.93207V2.76316C19.8286 2.6326 21.2811 2.55917 22.3337 3.3262C23.3048 4.04427 23.8025 5.39066 23.8025 7.34905V14.5624C23.8025 15.1173 24.2513 15.5661 24.8062 15.5661H34.4268C36.3933 15.5661 38.0008 17.1654 38.0008 19.1402V19.2218H37.9927Z" fill="#3C3C3C"/>
</g>
<defs>
<clipPath id="clip0_1_2154">
<rect width="40" height="40" fill="white"/>
</clipPath>
</defs>
</svg>
