<svg width="240" height="22" viewBox="0 0 240 22" fill="none" xmlns="http://www.w3.org/2000/svg">
<path d="M36.4859 16.3787H25.0404L22.6783 21.7572H19.5173L29.2608 0.260353H32.3002L42.0784 21.7572H38.8479L36.4859 16.3787ZM35.4091 13.9149L30.7718 3.38338L26.1345 13.9149H35.4091Z" fill="black"/>
<path d="M119.488 12.4575C120.235 13.3424 120.617 14.4875 120.617 15.8755C120.617 17.732 119.939 19.1894 118.567 20.213C117.195 21.2367 115.215 21.7572 112.61 21.7572H102.762V0.260353H112.02C114.382 0.260353 116.223 0.728799 117.543 1.68306C118.863 2.63732 119.523 4.00798 119.523 5.77769C119.523 6.94016 119.227 7.94648 118.654 8.76194C118.064 9.57739 117.247 10.202 116.171 10.6011C117.647 10.9481 118.741 11.5727 119.488 12.4575ZM105.819 9.7162H111.811C113.305 9.7162 114.451 9.42125 115.233 8.83134C116.014 8.24144 116.414 7.37393 116.414 6.22882C116.414 5.0837 116.014 4.19883 115.215 3.60892C114.416 3.00167 113.27 2.70672 111.794 2.70672H105.802V9.7162H105.819ZM117.508 15.6499C117.508 14.4181 117.091 13.5159 116.257 12.926C115.424 12.3361 114.191 12.0585 112.558 12.0585H105.819V19.3455H112.558C115.858 19.3282 117.508 18.0963 117.508 15.6499Z" fill="black"/>
<path d="M147.485 20.5773C145.748 19.623 144.376 18.3044 143.386 16.6214C142.396 14.9385 141.893 13.0647 141.893 11C141.893 8.93534 142.396 7.06152 143.386 5.37855C144.376 3.69559 145.748 2.37696 147.485 1.42271C149.222 0.468446 151.184 0 153.355 0C155.509 0 157.454 0.468446 159.191 1.42271C160.928 2.37696 162.3 3.67824 163.273 5.36121C164.263 7.02682 164.749 8.90064 164.749 11C164.749 13.0994 164.263 14.9732 163.273 16.6388C162.283 18.3044 160.928 19.623 159.191 20.5773C157.454 21.5316 155.509 22 153.355 22C151.184 22 149.239 21.5316 147.485 20.5773ZM157.628 18.2003C158.896 17.489 159.886 16.5 160.615 15.2334C161.345 13.9669 161.709 12.5615 161.709 11.0174C161.709 9.45584 161.345 8.05047 160.615 6.80126C159.886 5.53469 158.896 4.54574 157.628 3.83438C156.36 3.12303 154.953 2.75868 153.373 2.75868C151.792 2.75868 150.368 3.12303 149.083 3.83438C147.798 4.54574 146.79 5.53469 146.061 6.80126C145.331 8.06782 144.967 9.47319 144.967 11.0174C144.967 12.5789 145.331 13.9842 146.061 15.2334C146.79 16.5 147.798 17.489 149.083 18.2003C150.368 18.9117 151.792 19.276 153.373 19.276C154.936 19.276 156.36 18.9117 157.628 18.2003Z" fill="black"/>
<path d="M194.656 20.5773C192.92 19.623 191.548 18.3044 190.558 16.6214C189.568 14.9385 189.064 13.0647 189.064 11C189.064 8.93534 189.568 7.06152 190.558 5.37855C191.548 3.69559 192.92 2.37696 194.656 1.42271C196.393 0.468446 198.356 0 200.527 0C202.68 0 204.626 0.468446 206.362 1.42271C208.099 2.37696 209.471 3.67824 210.444 5.36121C211.434 7.02682 211.92 8.90064 211.92 11C211.92 13.0994 211.434 14.9732 210.444 16.6388C209.454 18.3044 208.099 19.623 206.362 20.5773C204.626 21.5316 202.68 22 200.527 22C198.356 22 196.411 21.5316 194.656 20.5773ZM204.799 18.2003C206.067 17.489 207.057 16.5 207.787 15.2334C208.516 13.9669 208.881 12.5615 208.881 11.0174C208.881 9.45584 208.516 8.05047 207.787 6.80126C207.057 5.53469 206.067 4.54574 204.799 3.83438C203.532 3.12303 202.125 2.75868 200.544 2.75868C198.964 2.75868 197.54 3.12303 196.254 3.83438C194.969 4.54574 193.962 5.53469 193.232 6.80126C192.503 8.06782 192.138 9.47319 192.138 11.0174C192.138 12.5789 192.503 13.9842 193.232 15.2334C193.962 16.5 194.969 17.489 196.254 18.2003C197.54 18.9117 198.964 19.276 200.544 19.276C202.107 19.276 203.532 18.9117 204.799 18.2003Z" fill="black"/>
<path d="M72.7679 16.2919V0.260353H69.7459V19.0853H60.8014V0.260353H57.7967V19.0853H48.8348V0.260353H45.7954V21.7572H70.3711L72.7679 16.2919Z" fill="black"/>
<path d="M140.225 0.295045V0.260353H122.492V2.93228H129.839V21.7572H132.861V2.93228H139.079L140.225 0.295045Z" fill="black"/>
<path d="M3.1395 10.6357V2.86288H15.1755L16.3392 0.329758V0.260353H0.100098V17.3503L3.1395 10.6357Z" fill="black"/>
<path d="M15.6965 10.6008C14.3592 9.54249 12.414 9.00464 9.86087 9.00464H7.62039L6.54357 11.4337H9.20088C12.8134 11.4337 14.6197 12.7349 14.6197 15.3375C14.6197 16.6561 14.1508 17.645 13.2303 18.3217C12.3097 18.9983 10.9724 19.328 9.20088 19.328H3.13945V19.1545L2.73999 20.074L1.99316 21.757H9.32245C12.0145 21.757 14.0813 21.2018 15.5228 20.074C16.9644 18.9463 17.6938 17.3327 17.6938 15.216C17.6938 13.2034 17.0165 11.6766 15.6965 10.6008Z" fill="black"/>
<path d="M89.0938 0.260353H86.2281L76.4846 21.7572H79.6456L89.0938 0.260353Z" fill="black"/>
<path d="M95.5026 13.9147H86.2628L86.2455 13.9667L85.186 16.3784H93.4532L95.8326 21.757H99.0631L95.5026 13.9147Z" fill="black"/>
<path d="M239.866 0.225586H239.067L235.246 8.86598L236.913 6.07261L236.948 21.7398H239.9L239.866 0.225586Z" fill="black"/>
<path d="M228.281 14.9906L219.51 0.225586H216.974V21.7398H219.927V6.15936L226.961 17.8881L228.281 14.9906Z" fill="black"/>
<path d="M184.079 0.260208L176.316 11L184.218 21.7397L184.235 21.7571H187.744L179.685 10.6703L187.379 0.260208H184.079Z" fill="black"/>
<path d="M172.773 9.59473V0.260353H169.751V21.7572H172.773V12.3014V9.59473Z" fill="black"/>
</svg>
