<svg width="152" height="17" viewBox="0 0 152 17" fill="none" xmlns="http://www.w3.org/2000/svg">
<path d="M12.078 13H9.684L8.802 10.696H3.294L2.412 13H0.018L4.734 0.993999H7.362L12.078 13ZM8.208 8.842L6.048 3.118L3.888 8.842H8.208ZM18.6633 13H13.3353V4.306H18.5373C19.3413 4.306 19.9713 4.516 20.4273 4.936C20.8833 5.356 21.1113 5.89 21.1113 6.538C21.1113 7.042 20.9733 7.468 20.6973 7.816C20.4213 8.164 20.0733 8.398 19.6533 8.518C20.1213 8.626 20.5113 8.884 20.8233 9.292C21.1353 9.688 21.2913 10.138 21.2913 10.642C21.2913 11.338 21.0573 11.908 20.5893 12.352C20.1333 12.784 19.4913 13 18.6633 13ZM18.2673 11.344C18.6033 11.344 18.8673 11.26 19.0593 11.092C19.2513 10.912 19.3473 10.672 19.3473 10.372C19.3473 10.096 19.2513 9.862 19.0593 9.67C18.8673 9.478 18.6033 9.382 18.2673 9.382H15.2253V11.344H18.2673ZM18.2133 7.726C18.5133 7.726 18.7473 7.648 18.9153 7.492C19.0953 7.324 19.1853 7.114 19.1853 6.862C19.1853 6.586 19.0953 6.37 18.9153 6.214C18.7473 6.046 18.5133 5.962 18.2133 5.962H15.2253V7.726H18.2133ZM27.1101 13H25.2201V5.962H22.7361V4.306H29.6121V5.962H27.1101V13ZM35.0835 13.216C33.7395 13.216 32.6595 12.778 31.8435 11.902C31.0275 11.014 30.6195 9.928 30.6195 8.644C30.6195 7.36 31.0275 6.28 31.8435 5.404C32.6595 4.528 33.7395 4.09 35.0835 4.09C36.4395 4.09 37.5255 4.528 38.3415 5.404C39.1575 6.28 39.5655 7.36 39.5655 8.644C39.5655 9.94 39.1575 11.026 38.3415 11.902C37.5255 12.778 36.4395 13.216 35.0835 13.216ZM35.0835 11.542C35.8635 11.542 36.4755 11.266 36.9195 10.714C37.3755 10.15 37.6035 9.46 37.6035 8.644C37.6035 7.84 37.3755 7.162 36.9195 6.61C36.4755 6.046 35.8635 5.764 35.0835 5.764C34.3155 5.764 33.7035 6.046 33.2475 6.61C32.8035 7.162 32.5815 7.84 32.5815 8.644C32.5815 9.46 32.8035 10.15 33.2475 10.714C33.7035 11.266 34.3155 11.542 35.0835 11.542ZM40.7579 13.216V11.344C41.4539 11.344 41.9759 11.074 42.3239 10.534C42.6719 9.982 42.9419 8.86 43.1339 7.168L43.8359 0.993999H51.9899V13H49.8839V2.848H45.7259L45.2219 7.312C45.0779 8.548 44.8739 9.568 44.6099 10.372C44.3579 11.176 44.0279 11.782 43.6199 12.19C43.2239 12.586 42.8039 12.856 42.3599 13C41.9279 13.144 41.3939 13.216 40.7579 13.216ZM56.3037 13H54.4857V4.306H56.3757V10.156L60.3717 4.306H62.2617V13H60.3717V6.988L56.3037 13ZM63.8162 15.214V11.434C64.2242 11.338 64.5302 11.104 64.7342 10.732C64.9502 10.348 65.1242 9.616 65.2562 8.536L65.7782 4.306H72.4922V11.344H73.4462V15.214H71.5562V13H65.7062V15.214H63.8162ZM67.4522 5.962L67.1462 8.752C67.0262 9.904 66.6422 10.768 65.9942 11.344H70.6022V5.962H67.4522ZM79.0134 13.216C77.6934 13.216 76.6014 12.796 75.7374 11.956C74.8854 11.104 74.4594 10 74.4594 8.644C74.4594 7.372 74.8734 6.298 75.7014 5.422C76.5414 4.534 77.5974 4.09 78.8694 4.09C80.1534 4.09 81.1854 4.534 81.9654 5.422C82.7574 6.31 83.1534 7.444 83.1534 8.824V9.274H76.4394C76.5114 9.958 76.7934 10.528 77.2854 10.984C77.7774 11.44 78.4194 11.668 79.2114 11.668C79.6554 11.668 80.0994 11.584 80.5434 11.416C80.9994 11.248 81.3774 11.014 81.6774 10.714L82.5414 11.956C81.6654 12.796 80.4894 13.216 79.0134 13.216ZM81.3174 7.942C81.2934 7.342 81.0714 6.808 80.6514 6.34C80.2434 5.872 79.6494 5.638 78.8694 5.638C78.1254 5.638 77.5434 5.872 77.1234 6.34C76.7034 6.796 76.4694 7.33 76.4214 7.942H81.3174ZM89.6989 13.216C88.5469 13.216 87.6169 12.742 86.9089 11.794V16.312H85.0189V4.306H86.9089V5.494C87.6049 4.558 88.5349 4.09 89.6989 4.09C90.8389 4.09 91.7629 4.498 92.4709 5.314C93.1909 6.13 93.5509 7.24 93.5509 8.644C93.5509 10.048 93.1909 11.164 92.4709 11.992C91.7629 12.808 90.8389 13.216 89.6989 13.216ZM89.1409 11.542C89.8849 11.542 90.4789 11.272 90.9229 10.732C91.3669 10.192 91.5889 9.496 91.5889 8.644C91.5889 7.792 91.3669 7.102 90.9229 6.574C90.4789 6.034 89.8849 5.764 89.1409 5.764C88.7089 5.764 88.2829 5.878 87.8629 6.106C87.4429 6.334 87.1249 6.61 86.9089 6.934V10.372C87.1249 10.696 87.4429 10.972 87.8629 11.2C88.2829 11.428 88.7089 11.542 89.1409 11.542ZM99.0612 9.454H94.7412V7.834H99.0612V9.454ZM106.636 13.216C104.836 13.216 103.336 12.64 102.136 11.488C100.936 10.324 100.336 8.83 100.336 7.006C100.336 5.182 100.936 3.694 102.136 2.542C103.336 1.378 104.836 0.795999 106.636 0.795999C108.724 0.795999 110.332 1.696 111.46 3.496L109.66 4.414C109.36 3.898 108.934 3.478 108.382 3.154C107.842 2.83 107.26 2.668 106.636 2.668C105.448 2.668 104.458 3.076 103.666 3.892C102.886 4.708 102.496 5.746 102.496 7.006C102.496 8.266 102.886 9.304 103.666 10.12C104.458 10.936 105.448 11.344 106.636 11.344C107.272 11.344 107.86 11.182 108.4 10.858C108.94 10.534 109.36 10.114 109.66 9.598L111.46 10.516C110.308 12.316 108.7 13.216 106.636 13.216ZM117.105 13.216C115.785 13.216 114.693 12.796 113.829 11.956C112.977 11.104 112.551 10 112.551 8.644C112.551 7.372 112.965 6.298 113.793 5.422C114.633 4.534 115.689 4.09 116.961 4.09C118.245 4.09 119.277 4.534 120.057 5.422C120.849 6.31 121.245 7.444 121.245 8.824V9.274H114.531C114.603 9.958 114.885 10.528 115.377 10.984C115.869 11.44 116.511 11.668 117.303 11.668C117.747 11.668 118.191 11.584 118.635 11.416C119.091 11.248 119.469 11.014 119.769 10.714L120.633 11.956C119.757 12.796 118.581 13.216 117.105 13.216ZM119.409 7.942C119.385 7.342 119.163 6.808 118.743 6.34C118.335 5.872 117.741 5.638 116.961 5.638C116.217 5.638 115.635 5.872 115.215 6.34C114.795 6.796 114.561 7.33 114.513 7.942H119.409ZM128.439 13H123.111V4.306H128.313C129.117 4.306 129.747 4.516 130.203 4.936C130.659 5.356 130.887 5.89 130.887 6.538C130.887 7.042 130.749 7.468 130.473 7.816C130.197 8.164 129.849 8.398 129.429 8.518C129.897 8.626 130.287 8.884 130.599 9.292C130.911 9.688 131.067 10.138 131.067 10.642C131.067 11.338 130.833 11.908 130.365 12.352C129.909 12.784 129.267 13 128.439 13ZM128.043 11.344C128.379 11.344 128.643 11.26 128.835 11.092C129.027 10.912 129.123 10.672 129.123 10.372C129.123 10.096 129.027 9.862 128.835 9.67C128.643 9.478 128.379 9.382 128.043 9.382H125.001V11.344H128.043ZM127.989 7.726C128.289 7.726 128.523 7.648 128.691 7.492C128.871 7.324 128.961 7.114 128.961 6.862C128.961 6.586 128.871 6.37 128.691 6.214C128.523 6.046 128.289 5.962 127.989 5.962H125.001V7.726H127.989ZM137.426 13.216C136.106 13.216 135.014 12.796 134.15 11.956C133.298 11.104 132.872 10 132.872 8.644C132.872 7.372 133.286 6.298 134.114 5.422C134.954 4.534 136.01 4.09 137.282 4.09C138.566 4.09 139.598 4.534 140.378 5.422C141.17 6.31 141.566 7.444 141.566 8.824V9.274H134.852C134.924 9.958 135.206 10.528 135.698 10.984C136.19 11.44 136.832 11.668 137.624 11.668C138.068 11.668 138.512 11.584 138.956 11.416C139.412 11.248 139.79 11.014 140.09 10.714L140.954 11.956C140.078 12.796 138.902 13.216 137.426 13.216ZM139.73 7.942C139.706 7.342 139.484 6.808 139.064 6.34C138.656 5.872 138.062 5.638 137.282 5.638C136.538 5.638 135.956 5.872 135.536 6.34C135.116 6.796 134.882 7.33 134.833 7.942H139.73ZM148.111 13.216C146.959 13.216 146.029 12.742 145.321 11.794V16.312H143.431V4.306H145.321V5.494C146.017 4.558 146.947 4.09 148.111 4.09C149.251 4.09 150.175 4.498 150.883 5.314C151.603 6.13 151.963 7.24 151.963 8.644C151.963 10.048 151.603 11.164 150.883 11.992C150.175 12.808 149.251 13.216 148.111 13.216ZM147.553 11.542C148.297 11.542 148.891 11.272 149.335 10.732C149.779 10.192 150.001 9.496 150.001 8.644C150.001 7.792 149.779 7.102 149.335 6.574C148.891 6.034 148.297 5.764 147.553 5.764C147.121 5.764 146.695 5.878 146.275 6.106C145.855 6.334 145.537 6.61 145.321 6.934V10.372C145.537 10.696 145.855 10.972 146.275 11.2C146.695 11.428 147.121 11.542 147.553 11.542Z" fill="#004786"/>
</svg>
