<svg width="74" height="74" viewBox="0 0 74 74" fill="none" xmlns="http://www.w3.org/2000/svg">
<g clip-path="url(#clip0_118_2143)">
<path fill-rule="evenodd" clip-rule="evenodd" d="M36.676 3.66171C49.1607 3.66171 59.2816 13.9156 59.2816 26.5644C59.2816 39.2134 49.1607 49.4673 36.676 49.4673C24.1913 49.4673 14.0703 39.2134 14.0703 26.5644C14.0703 13.9156 24.1913 3.66171 36.676 3.66171Z" stroke="#0A56A2" stroke-width="3.30736" stroke-miterlimit="22.9256"/>
<path fill-rule="evenodd" clip-rule="evenodd" d="M37.6834 5.49231L40.0532 9.13809L25.7878 34.7503H53.5698L54.914 36.9907L19.1455 37.149L37.6834 5.49231Z" fill="#0A56A2" stroke="#0A56A2" stroke-width="0.165368" stroke-miterlimit="22.9256"/>
<path fill-rule="evenodd" clip-rule="evenodd" d="M42.1775 12.8448L31.0986 32.6184H35.2356L36.2874 30.0941H46.1041L47.7168 32.8288L52.6253 32.7587L42.1775 12.8448Z" fill="#0A56A2" stroke="#0A56A2" stroke-width="0.165368" stroke-miterlimit="22.9256"/>
<path fill-rule="evenodd" clip-rule="evenodd" d="M37.2695 27.85H44.7723L41.3364 20.0668L37.2695 27.85Z" fill="white" stroke="#0A56A2" stroke-width="0.165368" stroke-miterlimit="22.9256"/>
<path d="M6.22245 63.8784H4.85593L4.31476 62.4521H1.80191L1.28125 63.8784H-0.0605469L2.37218 57.613H3.71249L6.22245 63.8784ZM3.90349 61.3932L3.03283 59.0743L2.18689 61.3932H3.90349ZM9.54122 57.613H10.8101V61.0082C10.8101 61.5478 10.8261 61.8964 10.8567 62.0553C10.9107 62.3121 11.0376 62.5192 11.2388 62.6737C11.4415 62.8298 11.7172 62.9072 12.0672 62.9072C12.4217 62.9072 12.69 62.8342 12.8708 62.6869C13.0517 62.5396 13.1596 62.3602 13.1961 62.1458C13.2326 61.9314 13.2515 61.577 13.2515 61.0812V57.613H14.5204V60.9076C14.5204 61.6601 14.4868 62.1925 14.4183 62.5032C14.3497 62.8138 14.2243 63.0763 14.0406 63.2907C13.8582 63.505 13.6132 63.6743 13.3069 63.8011C12.9992 63.9281 12.5995 63.9922 12.1052 63.9922C11.5087 63.9922 11.0566 63.9237 10.7488 63.7851C10.4411 63.6465 10.1975 63.4672 10.0181 63.2455C9.83872 63.0238 9.72205 62.7934 9.66516 62.5498C9.58207 62.191 9.54122 61.6601 9.54122 60.9586V57.613ZM20.2382 63.8784V58.6718H18.383V57.613H23.3534V58.6718H21.5071V63.8784H20.2382ZM26.8807 60.7836C26.8807 60.1449 26.977 59.6081 27.1681 59.1735C27.3095 58.8541 27.5049 58.5667 27.7514 58.313C27.9979 58.0592 28.2677 57.8711 28.5609 57.7471C28.9517 57.5823 29.4023 57.4992 29.9128 57.4992C30.8375 57.4992 31.5754 57.7865 32.1312 58.3597C32.6853 58.9343 32.9625 59.7321 32.9625 60.7545C32.9625 61.7681 32.6868 62.5615 32.137 63.1332C31.5871 63.7064 30.8506 63.9922 29.9304 63.9922C28.9983 63.9922 28.256 63.7078 27.7062 63.1375C27.1564 62.5687 26.8807 61.7841 26.8807 60.7836ZM28.1846 60.7413C28.1846 61.4516 28.3494 61.9898 28.6775 62.3573C29.0057 62.7233 29.4228 62.9072 29.9274 62.9072C30.4335 62.9072 30.8477 62.7248 31.1729 62.3617C31.4967 61.9971 31.6586 61.4516 31.6586 60.7238C31.6586 60.0048 31.5011 59.4681 31.1846 59.1152C30.8696 58.7607 30.451 58.5843 29.9274 58.5843C29.4053 58.5843 28.9838 58.7637 28.6644 59.121C28.345 59.4797 28.1846 60.0194 28.1846 60.7413ZM36.9535 63.8784V57.6655H38.2223V62.8196H41.3638V63.8784H36.9535ZM45.0311 63.8784V57.613H46.2999V63.8784H45.0311ZM50.4748 57.613H52.782C53.3027 57.613 53.6994 57.6523 53.9722 57.7325C54.3382 57.8404 54.6532 58.033 54.9143 58.3101C55.1768 58.5858 55.3751 58.9241 55.5122 59.3252C55.6479 59.7248 55.7165 60.2192 55.7165 60.8055C55.7165 61.3218 55.6523 61.7651 55.5239 62.1385C55.3679 62.595 55.1447 62.964 54.8545 63.2455C54.6357 63.4599 54.3397 63.6261 53.9678 63.7457C53.6892 63.8347 53.3173 63.8784 52.8505 63.8784H50.4748V57.613ZM51.7437 58.6718V62.8196H52.6843C53.0358 62.8196 53.2896 62.7992 53.4456 62.7598C53.6513 62.7088 53.8204 62.6212 53.9546 62.4988C54.0902 62.3762 54.1996 62.175 54.2842 61.8949C54.3703 61.615 54.4126 61.2314 54.4126 60.7471C54.4126 60.2629 54.3703 59.8925 54.2842 59.6329C54.1996 59.3733 54.0801 59.172 53.9269 59.0262C53.7738 58.8818 53.5798 58.7826 53.3435 58.7316C53.1685 58.6922 52.8228 58.6718 52.3095 58.6718H51.7437ZM59.7629 63.8784V57.613H64.4008V58.6718H61.0318V60.0632H64.1645V61.122H61.0318V62.8196H64.5233V63.8784H59.7629ZM68.5684 63.8784V57.613H71.2329C71.9024 57.613 72.3895 57.6698 72.6928 57.7822C72.9977 57.8944 73.2398 58.0942 73.4221 58.3815C73.6044 58.6703 73.6963 58.9984 73.6963 59.3689C73.6963 59.84 73.5592 60.2279 73.2835 60.5342C73.0078 60.8405 72.5966 61.033 72.0482 61.1132C72.321 61.2722 72.5456 61.4472 72.722 61.6383C72.8999 61.8293 73.1391 62.1691 73.4396 62.6563L74.2038 63.8784H72.6914L71.7842 62.5104C71.459 62.0248 71.2358 61.7185 71.1148 61.5916C70.9952 61.4661 70.8683 61.3787 70.7341 61.332C70.5985 61.2853 70.3856 61.262 70.0939 61.262H69.8372V63.8784H68.5684ZM69.8372 60.2644H70.7736C71.3802 60.2644 71.758 60.2381 71.9096 60.1871C72.0599 60.1361 72.1795 60.0471 72.2641 59.9217C72.3501 59.7963 72.3924 59.6387 72.3924 59.4506C72.3924 59.2391 72.3355 59.07 72.2233 58.9387C72.111 58.8088 71.952 58.7272 71.7477 58.6937C71.6442 58.6791 71.3365 58.6718 70.8246 58.6718H69.8372V60.2644Z" fill="#0A56A2"/>
<path d="M-0.166016 67.6061H74.039" stroke="#0A56A2" stroke-width="0.20671" stroke-miterlimit="22.9256"/>
<path d="M14.0456 72.0777V71.7836H15.1062V72.7124C14.9435 72.8419 14.7755 72.9399 14.6022 73.0053C14.4289 73.0706 14.251 73.1033 14.0689 73.1033C13.8228 73.1033 13.5994 73.0508 13.3981 72.9452C13.1974 72.8402 13.0451 72.6873 12.943 72.4884C12.8404 72.2889 12.7891 72.066 12.7891 71.8204C12.7891 71.5766 12.8397 71.3491 12.9419 71.1373C13.044 70.9261 13.1904 70.7692 13.3817 70.6671C13.5731 70.5644 13.7936 70.5131 14.0433 70.5131C14.2241 70.5131 14.3881 70.5422 14.5345 70.6012C14.681 70.6601 14.7959 70.7417 14.8787 70.8462C14.9621 70.9512 15.0251 71.0883 15.0682 71.2569L14.769 71.3386C14.7311 71.2114 14.6844 71.111 14.629 71.0375C14.573 70.9647 14.4937 70.9063 14.3898 70.8626C14.2865 70.8188 14.1716 70.7966 14.045 70.7966C13.894 70.7966 13.7632 70.82 13.6524 70.866C13.5421 70.9122 13.4535 70.9728 13.3852 71.0487C13.3176 71.1239 13.2651 71.2068 13.2277 71.2966C13.1641 71.4523 13.132 71.6203 13.132 71.8018C13.132 72.0257 13.1706 72.213 13.247 72.3642C13.324 72.5147 13.436 72.6267 13.5824 72.6996C13.7294 72.7726 13.8852 72.8093 14.0503 72.8093C14.1938 72.8093 14.3338 72.7812 14.4704 72.7258C14.6069 72.6699 14.7101 72.6109 14.7807 72.5473V72.0777H14.0456ZM16.0392 73.0613V70.5551H17.15C17.3734 70.5551 17.5431 70.5779 17.6592 70.6228C17.7753 70.6677 17.8681 70.747 17.9375 70.8608C18.007 70.9745 18.0414 71.1005 18.0414 71.2383C18.0414 71.4161 17.9836 71.5661 17.8687 71.688C17.7537 71.8099 17.5765 71.8869 17.3361 71.9202C17.4242 71.9622 17.4906 72.0042 17.5362 72.045C17.633 72.1337 17.7246 72.2451 17.8104 72.3787L18.2438 73.0613H17.8296L17.4982 72.5397C17.402 72.3886 17.322 72.2737 17.2596 72.1938C17.1966 72.1139 17.1406 72.0585 17.091 72.0264C17.0421 71.9949 16.9913 71.9727 16.94 71.9599C16.9026 71.9522 16.8414 71.9482 16.7556 71.9482H16.3718V73.0613H16.0392ZM16.3718 71.6612H17.0835C17.2351 71.6612 17.353 71.6454 17.4381 71.6139C17.5233 71.583 17.5881 71.5329 17.6319 71.4634C17.6762 71.3945 17.6983 71.3199 17.6983 71.2388C17.6983 71.1204 17.6558 71.0224 17.57 70.946C17.4843 70.8695 17.3489 70.8316 17.164 70.8316H16.3718V71.6612ZM18.895 71.8414C18.895 71.426 19.0071 71.1005 19.2305 70.8654C19.4539 70.6304 19.7421 70.5131 20.0956 70.5131C20.3272 70.5131 20.5355 70.5685 20.7216 70.6787C20.9071 70.789 21.0489 70.943 21.1463 71.1408C21.2437 71.338 21.2927 71.562 21.2927 71.8123C21.2927 72.066 21.2414 72.2936 21.1387 72.4937C21.036 72.6943 20.8908 72.8461 20.7029 72.9487C20.5145 73.0519 20.3115 73.1033 20.0939 73.1033C19.8576 73.1033 19.647 73.0462 19.4609 72.9324C19.2754 72.8186 19.1342 72.6634 19.0386 72.4662C18.9429 72.2697 18.895 72.0614 18.895 71.8414ZM19.2381 71.8473C19.2381 72.1489 19.3191 72.3863 19.4813 72.5596C19.6435 72.7329 19.8471 72.8198 20.0921 72.8198C20.3418 72.8198 20.5466 72.7323 20.7081 72.5572C20.8692 72.3822 20.9496 72.1337 20.9496 71.8117C20.9496 71.6081 20.9152 71.4302 20.8465 71.2785C20.7776 71.1268 20.6766 71.009 20.5442 70.9255C20.4112 70.8421 20.2625 70.8001 20.0973 70.8001C19.8628 70.8001 19.661 70.8807 19.4918 71.0416C19.3227 71.2026 19.2381 71.471 19.2381 71.8473ZM23.7974 70.5551H24.1298V72.0024C24.1298 72.2544 24.1013 72.4545 24.0447 72.6027C23.9875 72.7503 23.8848 72.8711 23.7367 72.9639C23.5879 73.0567 23.3936 73.1033 23.1521 73.1033C22.9182 73.1033 22.7263 73.063 22.5775 72.9819C22.4282 72.9009 22.322 72.7842 22.2584 72.6307C22.1948 72.4773 22.1627 72.2679 22.1627 72.0024V70.5551H22.4953V72.0019C22.4953 72.2195 22.5157 72.3805 22.5559 72.4832C22.5962 72.5864 22.665 72.6663 22.7636 72.7218C22.8616 72.7778 22.9818 72.8058 23.1236 72.8058C23.3662 72.8058 23.5395 72.7503 23.6427 72.6401C23.746 72.5292 23.7974 72.3169 23.7974 72.0019V70.5551ZM25.1201 73.0613V70.5551H26.0663C26.2325 70.5551 26.3597 70.5632 26.4478 70.579C26.5709 70.5995 26.6741 70.6386 26.7575 70.6957C26.841 70.7534 26.9081 70.8339 26.9589 70.9372C27.0096 71.0405 27.0347 71.1543 27.0347 71.2785C27.0347 71.4909 26.967 71.6711 26.831 71.8181C26.6958 71.9657 26.4501 72.0392 26.0954 72.0392H25.4525V73.0613H25.1201ZM25.4525 71.7452H26.1001C26.3148 71.7452 26.4665 71.7055 26.5569 71.6256C26.6467 71.5457 26.6916 71.4337 26.6916 71.2884C26.6916 71.1839 26.6654 71.0941 26.6123 71.0195C26.5593 70.9448 26.4892 70.8952 26.4029 70.8713C26.3468 70.8567 26.2437 70.8492 26.0937 70.8492H25.4525V71.7452ZM29.7691 71.8414C29.7691 71.426 29.8811 71.1005 30.1045 70.8654C30.3279 70.6304 30.6161 70.5131 30.9696 70.5131C31.2012 70.5131 31.4095 70.5685 31.5956 70.6787C31.7811 70.789 31.9229 70.943 32.0203 71.1408C32.1177 71.338 32.1667 71.562 32.1667 71.8123C32.1667 72.066 32.1154 72.2936 32.0127 72.4937C31.9101 72.6943 31.7648 72.8461 31.5769 72.9487C31.3885 73.0519 31.1855 73.1033 30.9679 73.1033C30.7317 73.1033 30.5211 73.0462 30.3349 72.9324C30.1494 72.8186 30.0083 72.6634 29.9126 72.4662C29.8169 72.2697 29.7691 72.0614 29.7691 71.8414ZM30.1121 71.8473C30.1121 72.1489 30.1931 72.3863 30.3554 72.5596C30.5175 72.7329 30.7212 72.8198 30.9662 72.8198C31.2159 72.8198 31.4206 72.7323 31.5821 72.5572C31.7432 72.3822 31.8237 72.1337 31.8237 71.8117C31.8237 71.6081 31.7893 71.4302 31.7205 71.2785C31.6516 71.1268 31.5506 71.009 31.4183 70.9255C31.2852 70.8421 31.1365 70.8001 30.9714 70.8001C30.7369 70.8001 30.535 70.8807 30.3659 71.0416C30.1967 71.2026 30.1121 71.471 30.1121 71.8473ZM33.0472 73.0613V70.5551H34.7379V70.8492H33.3798V71.6297H34.5559V71.9237H33.3798V73.0613H33.0472ZM39.4318 72.1821L39.7643 72.2661C39.6949 72.5386 39.5701 72.7457 39.3898 72.8886C39.2095 73.0315 38.989 73.1033 38.7283 73.1033C38.4587 73.1033 38.2394 73.0485 38.0702 72.9382C37.901 72.8285 37.7727 72.6693 37.6846 72.461C37.5965 72.2521 37.5522 72.0287 37.5522 71.7895C37.5522 71.5287 37.6017 71.3013 37.7015 71.107C37.8012 70.9127 37.943 70.7651 38.1268 70.6642C38.3106 70.5632 38.513 70.5131 38.7335 70.5131C38.9844 70.5131 39.195 70.5767 39.3653 70.7045C39.5362 70.8322 39.6553 71.0113 39.7223 71.2423L39.3968 71.3193C39.3391 71.1373 39.2545 71.0043 39.1442 70.9214C39.034 70.838 38.8951 70.7966 38.7276 70.7966C38.5357 70.7966 38.3747 70.8427 38.2458 70.9349C38.1168 71.027 38.0259 71.1513 37.974 71.3065C37.9214 71.4623 37.8952 71.6227 37.8952 71.7878C37.8952 72.0007 37.9261 72.1868 37.9879 72.3455C38.0498 72.5047 38.146 72.6231 38.2767 72.7019C38.4074 72.7807 38.5485 72.8198 38.7008 72.8198C38.8864 72.8198 39.0426 72.7661 39.1711 72.6594C39.2994 72.552 39.3863 72.3933 39.4318 72.1821ZM40.5095 71.8414C40.5095 71.426 40.6215 71.1005 40.8449 70.8654C41.0683 70.6304 41.3566 70.5131 41.71 70.5131C41.9416 70.5131 42.1499 70.5685 42.336 70.6787C42.5215 70.789 42.6633 70.943 42.7607 71.1408C42.8581 71.338 42.9071 71.562 42.9071 71.8123C42.9071 72.066 42.8558 72.2936 42.7531 72.4937C42.6505 72.6943 42.5052 72.8461 42.3174 72.9487C42.1289 73.0519 41.9259 73.1033 41.7083 73.1033C41.4721 73.1033 41.2615 73.0462 41.0754 72.9324C40.8898 72.8186 40.7487 72.6634 40.653 72.4662C40.5573 72.2697 40.5095 72.0614 40.5095 71.8414ZM40.8525 71.8473C40.8525 72.1489 40.9336 72.3863 41.0958 72.5596C41.2579 72.7329 41.4616 72.8198 41.7066 72.8198C41.9563 72.8198 42.161 72.7323 42.3226 72.5572C42.4836 72.3822 42.5641 72.1337 42.5641 71.8117C42.5641 71.6081 42.5297 71.4302 42.4609 71.2785C42.392 71.1268 42.2911 71.009 42.1587 70.9255C42.0256 70.8421 41.8769 70.8001 41.7118 70.8001C41.4773 70.8001 41.2754 70.8807 41.1063 71.0416C40.9371 71.2026 40.8525 71.471 40.8525 71.8473ZM43.7632 73.0613V70.5551H44.2602L44.8529 72.3291C44.9078 72.4942 44.9474 72.6179 44.9725 72.7002C45.0011 72.6092 45.046 72.475 45.1067 72.2982L45.7099 70.5551H46.1538V73.0613H45.8353V70.9647L45.1038 73.0613H44.8051L44.0817 70.9261V73.0613H43.7632ZM47.1225 73.0613V70.5551H48.0687C48.2349 70.5551 48.3621 70.5632 48.4502 70.579C48.5733 70.5995 48.6765 70.6386 48.7599 70.6957C48.8434 70.7534 48.9105 70.8339 48.9613 70.9372C49.0119 71.0405 49.0371 71.1543 49.0371 71.2785C49.0371 71.4909 48.9694 71.6711 48.8334 71.8181C48.6982 71.9657 48.4525 72.0392 48.0978 72.0392H47.4549V73.0613H47.1225ZM47.4549 71.7452H48.1025C48.3172 71.7452 48.4689 71.7055 48.5592 71.6256C48.6491 71.5457 48.694 71.4337 48.694 71.2884C48.694 71.1839 48.6678 71.0941 48.6147 71.0195C48.5616 70.9448 48.4916 70.8952 48.4053 70.8713C48.3492 70.8567 48.246 70.8492 48.0961 70.8492H47.4549V71.7452ZM49.3593 73.0613L50.3207 70.5551H50.6853L51.7062 73.0613H51.3282L51.0382 72.3017H49.9829L49.711 73.0613H49.3593ZM50.0803 72.0322H50.9343L50.673 71.3374C50.5943 71.1262 50.5347 70.9518 50.4933 70.8141C50.4589 70.9775 50.4129 71.1379 50.3551 71.2966L50.0803 72.0322ZM52.4017 73.0613V70.5551H52.7425L54.0574 72.5223V70.5551H54.3759V73.0613H54.0352L52.7203 71.0941V73.0613H52.4017ZM55.4256 73.0613V70.5551H55.7581V73.0613H55.4256ZM56.7856 73.0613V70.5551H58.5953V70.8492H57.1182V71.6192H58.5008V71.9132H57.1182V72.7673H58.6548V73.0613H56.7856ZM59.4414 72.2562L59.7529 72.2282C59.7675 72.3543 59.802 72.4575 59.8562 72.5386C59.9104 72.6191 59.9945 72.6844 60.1082 72.7346C60.222 72.7842 60.3503 72.8093 60.4926 72.8093C60.6192 72.8093 60.7307 72.7906 60.8275 72.7527C60.9243 72.7148 60.9961 72.6628 61.0434 72.5969C61.0906 72.531 61.1145 72.4593 61.1145 72.3822C61.1145 72.3041 61.0918 72.2358 61.0463 72.1769C61.0008 72.1185 60.9256 72.0696 60.8205 72.0293C60.7534 72.0036 60.6047 71.9627 60.3742 71.9073C60.1438 71.8519 59.9828 71.8 59.8906 71.751C59.771 71.688 59.6823 71.6098 59.624 71.5171C59.5651 71.4243 59.5359 71.3199 59.5359 71.2049C59.5359 71.0778 59.5721 70.9594 59.6439 70.8497C59.7156 70.7394 59.82 70.656 59.9582 70.5989C60.096 70.5416 60.2494 70.5131 60.418 70.5131C60.6035 70.5131 60.7674 70.5428 60.9092 70.6029C61.0509 70.6625 61.16 70.7505 61.2364 70.8672C61.3128 70.9833 61.3537 71.1152 61.3596 71.2622L61.041 71.2866C61.0241 71.1285 60.9663 71.009 60.8678 70.9284C60.7692 70.8473 60.6233 70.8072 60.4308 70.8072C60.2301 70.8072 60.0837 70.8439 59.9921 70.9174C59.9005 70.9909 59.8545 71.0795 59.8545 71.1834C59.8545 71.2732 59.8871 71.3473 59.9519 71.4056C60.016 71.4634 60.1823 71.5235 60.4518 71.5841C60.7213 71.6454 60.9063 71.6985 61.0066 71.744C61.1519 71.8111 61.2598 71.8957 61.3292 71.999C61.3987 72.1016 61.4331 72.2201 61.4331 72.3542C61.4331 72.4878 61.3951 72.6126 61.3187 72.7305C61.2423 72.8484 61.1332 72.9399 60.9903 73.0053C60.8473 73.0706 60.6869 73.1033 60.5078 73.1033C60.2815 73.1033 60.0919 73.07 59.9391 73.0041C59.7856 72.9382 59.666 72.839 59.5791 72.706C59.4916 72.5736 59.4461 72.4236 59.4414 72.2562Z" fill="#0A56A2"/>
</g>
<defs>
<clipPath id="clip0_118_2143">
<rect width="74" height="72.4421" fill="white" transform="translate(0 0.778931)"/>
</clipPath>
</defs>
</svg>
