<svg width="30" height="30" viewBox="0 0 30 30" fill="none" xmlns="http://www.w3.org/2000/svg">
<path d="M22.6125 12.9625C23.7941 13.403 24.8456 14.1344 25.6697 15.089C26.4938 16.0436 27.0638 17.1905 27.3272 18.4238C27.5905 19.6571 27.5386 20.9369 27.1763 22.1448C26.814 23.3527 26.1529 24.4498 25.2543 25.3345C24.3556 26.2192 23.2484 26.8631 22.035 27.2065C20.8216 27.55 19.5411 27.5819 18.3121 27.2993C17.0831 27.0168 15.9451 26.4289 15.0035 25.59C14.0619 24.7511 13.347 23.6884 12.925 22.5M8.75 7.5H10V12.5M20.8875 17.35L21.7625 18.2375L18.2375 21.7625M17.5 10C17.5 14.1421 14.1421 17.5 10 17.5C5.85786 17.5 2.5 14.1421 2.5 10C2.5 5.85786 5.85786 2.5 10 2.5C14.1421 2.5 17.5 5.85786 17.5 10Z" stroke="#2C2F36" stroke-width="2" stroke-linecap="round" stroke-linejoin="round"/>
</svg>
