<svg width="40" height="40" viewBox="0 0 40 40" fill="none" xmlns="http://www.w3.org/2000/svg">
<path d="M4.80495 4.8079L6.97158 4.80648L10.8791 4.80639L12.7686 4.80683C13.1127 4.80692 13.4886 4.77745 13.8278 4.83105C14.0637 4.8683 14.2738 4.93367 14.4731 5.06967C14.8188 5.30545 15.086 5.67447 15.1569 6.09172C15.2308 6.52714 15.1406 6.97345 14.8842 7.3339C14.6901 7.60687 14.3772 7.82879 14.0551 7.9211C13.6285 8.04332 13.1022 7.98812 12.6609 7.98812L10.9803 7.98816C10.7505 7.98843 10.4849 7.9647 10.2594 8.00119L10.8966 8.64376L12.3213 10.0681L15.4916 13.2407L16.5851 14.3335C16.8221 14.5685 17.0934 14.8007 17.2903 15.0701C17.4682 15.3134 17.5733 15.606 17.5806 15.9081C17.5929 16.415 17.4439 16.7846 17.0942 17.1516C17.0055 17.2299 16.9162 17.3032 16.8143 17.3639C16.4543 17.5785 16.0314 17.6359 15.6248 17.5391C15.3912 17.4835 15.1743 17.3825 14.9878 17.2293C14.7941 17.0703 14.6227 16.8742 14.4434 16.6989L13.0253 15.2789L10.21 12.4724L8.00718 10.2688C7.97393 10.5833 7.98767 10.9078 7.98638 11.2238L7.98678 12.962C7.98647 13.2815 8.01807 13.6507 7.94513 13.9613C7.84704 14.3788 7.59273 14.7385 7.22464 14.9601C6.88824 15.1627 6.43562 15.2463 6.0518 15.1486L6.01544 15.1388C5.68727 15.0541 5.45664 14.891 5.20375 14.6725C5.15184 14.6277 5.09051 14.5917 5.04287 14.5424C4.97287 14.4699 4.86095 14.2812 4.87207 14.1832C4.89149 14.0123 4.81447 13.7951 4.80878 13.6145L4.8042 11.9674L4.80495 4.8079Z" fill="white"/>
<path d="M15.807 22.4129L15.865 22.41C15.9831 22.4065 16.1215 22.3986 16.2378 22.417C16.5478 22.466 16.8721 22.6408 17.0992 22.8538C17.3921 23.1284 17.5745 23.5033 17.5831 23.9067C17.591 24.2723 17.521 24.6004 17.3102 24.9042C17.1193 25.1792 16.839 25.4124 16.6019 25.6498L15.4052 26.852L10.2618 32.0032C10.4373 31.9931 10.6146 32.0046 10.7906 32.0049L11.8847 32.005L13.1442 32.0051C13.3886 32.0056 13.6722 31.9824 13.9101 32.0372C14.2033 32.1048 14.484 32.236 14.7028 32.4466C15.0101 32.7425 15.1878 33.1369 15.1918 33.5646C15.1962 34.0253 15.0225 34.4309 14.6954 34.7538C14.4818 34.9645 14.1852 35.1088 13.891 35.161C13.591 35.2143 13.2666 35.1936 12.9625 35.1939L11.5766 35.1942L6.52251 35.1931L4.80678 35.1957L4.81505 32.8472L4.81518 28.4463L4.813 27.0018C4.81158 26.7118 4.78674 26.3938 4.83371 26.1072C4.88336 25.8044 5.04549 25.5146 5.25434 25.2931C5.53416 24.9963 5.93754 24.8269 6.34229 24.8186C6.80847 24.8091 7.21527 24.9671 7.54771 25.2962C7.74251 25.489 7.88629 25.7552 7.94731 26.0216C8.05718 26.5012 8.00216 27.0743 8.00136 27.5652L8.00509 29.7259C8.62118 29.1759 9.19225 28.5511 9.77665 27.9669L13.255 24.4886L14.3998 23.3439C14.5988 23.145 14.7967 22.9144 15.0212 22.745C15.2495 22.5727 15.5265 22.4614 15.807 22.4129Z" fill="white"/>
<path d="M23.8323 22.4118L23.955 22.4072C24.2921 22.4064 24.6354 22.5008 24.9121 22.6991C25.2206 22.9202 25.4907 23.2367 25.7587 23.5056L27.1439 24.8919L31.9983 29.7417C32.0154 29.6714 32.0044 29.5806 32.0046 29.5071L32.0059 29.0559L32.0046 27.2402C32.0041 26.8523 31.9634 26.4135 32.0486 26.0355C32.1078 25.7725 32.2542 25.5027 32.4405 25.3085C32.7226 25.0146 33.1309 24.8227 33.5401 24.8174C33.9929 24.8116 34.4076 24.959 34.7303 25.2829C34.9634 25.517 35.1236 25.8173 35.1772 26.1443C35.2277 26.4526 35.2002 26.7979 35.2003 27.1106L35.2002 28.835L35.198 35.1951L33.7402 35.1937L28.4933 35.1927L27.022 35.1931C26.7253 35.1928 26.4057 35.2155 26.1137 35.1652C25.804 35.1118 25.5118 34.9544 25.2876 34.736C24.9902 34.4464 24.8153 34.0363 24.8105 33.6228C24.8055 33.19 24.973 32.7705 25.2826 32.4655C25.4761 32.275 25.748 32.1192 26.0114 32.0562C26.2392 32.0017 26.4723 32.0068 26.7051 32.0061L27.5926 32.0063L29.7454 32.0043L28.1154 30.3675L24.5843 26.8384L23.3734 25.6251C23.1702 25.4214 22.9375 25.2216 22.7597 24.9967C22.5952 24.7887 22.4802 24.5276 22.4312 24.2672C22.3566 23.8705 22.4522 23.4473 22.6796 23.1147C22.9598 22.7047 23.3542 22.5029 23.8323 22.4118Z" fill="white"/>
<path d="M26.3215 4.81269L35.1967 4.80176L35.1937 11.1131L35.1992 12.863C35.2001 13.1698 35.2248 13.499 35.183 13.8023C35.1425 14.097 35.0116 14.4011 34.8165 14.6262C34.5413 14.9437 34.1366 15.1535 33.7163 15.1802C33.2775 15.2082 32.8477 15.0695 32.5209 14.7718C32.2999 14.5706 32.1265 14.2842 32.0549 13.9942C31.9595 13.6078 32.003 13.151 32.0029 12.7529L31.9943 10.2612L27.9702 14.2842L25.9623 16.2913L25.3734 16.879C25.2121 17.0404 25.0621 17.2035 24.8693 17.3288C24.6204 17.4905 24.3441 17.5728 24.048 17.5824C23.6192 17.5963 23.2261 17.4526 22.9129 17.1579C22.6116 16.8744 22.4107 16.4532 22.4049 16.0364C22.4 15.6759 22.5145 15.3431 22.7217 15.0496C22.8845 14.8189 23.1263 14.6162 23.3268 14.4157L24.5149 13.2269L28.2529 9.4886L29.7403 7.99856L27.2349 7.98838C26.8299 7.98842 26.3815 8.02869 25.9864 7.93109C25.7593 7.875 25.556 7.76247 25.3749 7.61505C25.0516 7.35167 24.859 6.95367 24.8169 6.54376C24.772 6.10705 24.9187 5.68642 25.1981 5.35211C25.4805 5.01429 25.8934 4.85274 26.3215 4.81269Z" fill="white"/>
</svg>
