<svg width="30" height="30" viewBox="0 0 30 30" fill="none" xmlns="http://www.w3.org/2000/svg">
<path d="M15 10.0005V26.2505M15 10.0005C14.5478 8.1373 13.7693 6.54437 12.7659 5.4295C11.7625 4.31462 10.5809 3.72954 9.375 3.75055C8.5462 3.75055 7.75134 4.07979 7.16529 4.66584C6.57924 5.25189 6.25 6.04674 6.25 6.87555C6.25 7.70435 6.57924 8.4992 7.16529 9.08525C7.75134 9.67131 8.5462 10.0005 9.375 10.0005M15 10.0005C15.4522 8.1373 16.2307 6.54437 17.2341 5.4295C18.2375 4.31462 19.4191 3.72954 20.625 3.75055C21.4538 3.75055 22.2487 4.07979 22.8347 4.66584C23.4208 5.25189 23.75 6.04674 23.75 6.87555C23.75 7.70435 23.4208 8.4992 22.8347 9.08525C22.2487 9.67131 21.4538 10.0005 20.625 10.0005M23.75 15.0005V23.7505C23.75 24.4136 23.4866 25.0495 23.0178 25.5183C22.5489 25.9872 21.913 26.2505 21.25 26.2505H8.75C8.08696 26.2505 7.45107 25.9872 6.98223 25.5183C6.51339 25.0495 6.25 24.4136 6.25 23.7505V15.0005M5 10.0005H25C25.6904 10.0005 26.25 10.5602 26.25 11.2505V13.7505C26.25 14.4409 25.6904 15.0005 25 15.0005H5C4.30964 15.0005 3.75 14.4409 3.75 13.7505V11.2505C3.75 10.5602 4.30964 10.0005 5 10.0005Z" stroke="#2C2F36" stroke-width="2" stroke-linecap="round" stroke-linejoin="round"/>
</svg>
