<svg width="30" height="30" viewBox="0 0 30 30" fill="none" xmlns="http://www.w3.org/2000/svg">
<g clip-path="url(#clip0_1068_878)">
<path d="M20 0H10C6.35285 0 3.26145 2.81297 1.51898 7.00096C1.51758 7.00418 1.51641 7.0074 1.51506 7.01063C0.550313 9.33322 0 12.0777 0 15C0 23.1982 4.32838 30 10 30H20C25.6716 30 30 23.1982 30 15C30 6.8018 25.6716 0 20 0ZM5.5077 24.9551C4.87441 24.1579 4.3149 23.1978 3.85547 22.1096L4.58104 22.4068C4.83287 22.5099 5.11154 22.528 5.37463 22.4584L10.8257 21.0154C10.8258 21.0157 10.826 21.0161 10.8261 21.0165C10.8517 21.1054 10.8779 21.1938 10.9046 21.2818C10.9171 21.3229 10.9295 21.3641 10.9422 21.405C10.976 21.5138 11.0107 21.6217 11.0462 21.7291C11.0519 21.7463 11.0573 21.7638 11.063 21.7809C11.1045 21.9049 11.1471 22.0277 11.1908 22.1496C11.2034 22.1848 11.2164 22.2196 11.2291 22.2546C11.2611 22.3424 11.2936 22.4297 11.3268 22.5165C11.3425 22.5577 11.3583 22.5986 11.3743 22.6395C11.4071 22.7236 11.4406 22.8071 11.4745 22.8903C11.4895 22.9269 11.5042 22.9635 11.5193 22.9999C11.5676 23.1161 11.6167 23.2315 11.6672 23.3456C11.6676 23.3466 11.668 23.3476 11.6685 23.3486C11.6914 23.4005 11.7152 23.4516 11.7386 23.5031L5.5077 24.9551ZM5.09086 5.60865L6.61611 7.13391C6.91166 7.42945 7.33541 7.55771 7.74521 7.47574L11.65 6.69451C11.6056 6.79559 11.5621 6.89748 11.5193 7.0002C11.5042 7.03647 11.4895 7.07309 11.4746 7.10953C11.4407 7.19273 11.4072 7.27635 11.3743 7.36061C11.3583 7.40145 11.3425 7.44229 11.3268 7.48336C11.2937 7.5702 11.2611 7.65768 11.2291 7.74563C11.2164 7.78055 11.2034 7.81523 11.1908 7.85033C11.1472 7.97232 11.1045 8.0952 11.0631 8.21918C11.0574 8.23623 11.052 8.25363 11.0463 8.27074C11.0108 8.37815 10.9761 8.48625 10.9422 8.59512C10.9295 8.63602 10.9171 8.67721 10.9046 8.71834C10.8818 8.79352 10.8592 8.86893 10.8371 8.94475L6.66621 9.87639L4.14773 7.24195C4.43279 6.65104 4.74902 6.10482 5.09086 5.60865ZM5.34674 12.1138C5.64932 12.4303 6.09545 12.5654 6.52277 12.4699L10.2487 11.6377C10.2471 11.649 10.2456 11.6604 10.2439 11.6718C10.2386 11.7077 10.2338 11.7439 10.2285 11.7799C10.2136 11.8838 10.1992 11.988 10.1857 12.0928C10.1796 12.1404 10.1737 12.1882 10.1678 12.236C10.1559 12.3337 10.1446 12.4318 10.1338 12.5302C10.1289 12.5761 10.1237 12.6219 10.119 12.6679C10.1064 12.7905 10.0948 12.9135 10.0842 13.0369C10.0825 13.0566 10.0804 13.0761 10.0788 13.0957C10.0669 13.2384 10.0566 13.3818 10.0474 13.5257C10.0451 13.5616 10.0431 13.5978 10.041 13.6338L5.39496 14.8539L2.71471 12.0503C2.82809 11.2843 2.98412 10.5471 3.17842 9.84562L5.34674 12.1138ZM4.0967 17.1138C4.4107 17.4422 4.87822 17.5744 5.31773 17.459L10.0327 16.2209C10.035 16.2636 10.0376 16.3062 10.0401 16.3489C10.0426 16.3907 10.0447 16.4326 10.0474 16.4743C10.0566 16.6181 10.0669 16.7615 10.0788 16.9042C10.0805 16.9239 10.0825 16.9434 10.0842 16.963C10.0948 17.0865 10.1064 17.2095 10.119 17.332C10.1237 17.3781 10.1289 17.4239 10.1338 17.4698C10.1446 17.5682 10.1558 17.6663 10.1678 17.7639C10.1737 17.8117 10.1796 17.8596 10.1857 17.9072C10.1992 18.0119 10.2136 18.1161 10.2285 18.2201C10.2337 18.2561 10.2386 18.2923 10.2439 18.3282C10.2561 18.4102 10.2692 18.4917 10.2823 18.5731L5.14031 19.9344L2.90396 19.0186C2.67088 17.8956 2.53242 16.6978 2.50547 15.4494L4.0967 17.1138ZM14.427 2.50002C14.4156 2.51145 14.4046 2.52352 14.3932 2.535C14.3356 2.59318 14.2785 2.65236 14.2218 2.71225C14.2025 2.73264 14.1829 2.75262 14.1637 2.77324C14.0887 2.85363 14.0145 2.93549 13.9412 3.01887C13.9255 3.03674 13.9102 3.05514 13.8946 3.07313C13.8367 3.13975 13.7793 3.20713 13.7225 3.27557C13.6986 3.30439 13.6749 3.33363 13.6512 3.36281C13.6017 3.42357 13.5527 3.48498 13.504 3.54715C13.4808 3.57691 13.4574 3.60656 13.4343 3.63668C13.3893 3.69539 13.3447 3.75492 13.3004 3.8148L7.9108 4.89316L6.7708 3.75316C7.76086 2.94943 8.86055 2.50014 10 2.50014L14.427 2.50002ZM14.427 27.5H9.99996C9.26924 27.5 8.55492 27.3147 7.87529 26.9704L12.7833 25.8267C12.8573 25.8094 12.9281 25.7856 12.9954 25.7565C13.0062 25.7723 13.0168 25.7882 13.0276 25.8039C13.0933 25.8996 13.1599 25.994 13.2274 26.087C13.2417 26.1067 13.2562 26.1257 13.2706 26.1453C13.3246 26.2188 13.3791 26.2916 13.4342 26.3634C13.4573 26.3936 13.4807 26.4233 13.5041 26.4531C13.5527 26.5152 13.6016 26.5765 13.651 26.6372C13.6748 26.6664 13.6986 26.6957 13.7226 26.7247C13.7793 26.793 13.8366 26.8602 13.8943 26.9267C13.91 26.9448 13.9254 26.9634 13.9413 26.9813C14.0146 27.0647 14.0887 27.1464 14.1636 27.2268C14.183 27.2476 14.2026 27.2676 14.2221 27.2881C14.2787 27.3479 14.3356 27.407 14.3931 27.465C14.4045 27.4764 14.4156 27.4886 14.427 27.5ZM20 27.5C16.0067 27.5 12.5 21.9894 12.5 15C12.5 13.3479 12.6962 11.7786 13.0481 10.345C13.0553 10.3202 13.0615 10.295 13.0671 10.2697C13.5076 8.50904 14.1835 6.95578 15.0211 5.7102C15.0525 5.66982 15.0817 5.62775 15.1079 5.58387C16.4429 3.65766 18.1702 2.50002 20 2.50002C23.9933 2.50002 27.5 8.01059 27.5 15C27.5 21.9894 23.9933 27.5 20 27.5Z" fill="#2C2F36"/>
<path d="M20 5C16.9488 5 15 9.54752 15 15C15 20.4525 16.9488 25 20 25C23.0511 25 25 20.4526 25 15C25 9.54746 23.0511 5 20 5ZM21.5028 20.6948C20.9793 21.9163 20.3878 22.5 20 22.5C19.6121 22.5 19.0206 21.9163 18.4972 20.6948C17.8695 19.23 17.5 17.1916 17.5 15C17.5 12.8084 17.8695 10.77 18.4972 9.30523C19.0206 8.08379 19.6122 7.50002 20 7.50002C20.3878 7.50002 20.9793 8.08379 21.5027 9.30523C22.1305 10.77 22.5 12.8084 22.5 15C22.5 17.1916 22.1305 19.2301 21.5028 20.6948Z" fill="#2C2F36"/>
</g>
<defs>
<clipPath id="clip0_1068_878">
<rect width="30" height="30" fill="white"/>
</clipPath>
</defs>
</svg>
