<svg width="237" height="28" viewBox="0 0 237 28" fill="none" xmlns="http://www.w3.org/2000/svg">
<g id="logo 1" clip-path="url(#clip0_53_52)">
<path id="Vector" d="M88.2669 21.77V27.5H113.53V21.77H88.2669ZM202.621 5.24V22.7825L207.097 27.4205L207.175 27.4985H218.851V21.7685H211.865L209.428 19.2425V8.762L211.684 6.23H218.851V0.5H206.838L202.621 5.24ZM161.172 5.24V22.7825L165.645 27.4205L165.72 27.4985H177.4V21.7685H170.413L167.976 19.2425V8.762L170.232 6.23H177.4V0.5H165.389L161.172 5.24ZM190.857 0.5H178.838V6.23H186.005L188.231 8.738V19.25L185.801 21.77H178.838V27.5H190.529L194.984 22.88L195.065 22.799V5.225L190.939 0.59L190.857 0.503V0.5ZM232.312 0.5H220.29V6.23H227.457L229.683 8.738V19.25L227.252 21.77H220.29V27.5H231.981L236.436 22.88L236.517 22.799V5.225L232.39 0.59L232.312 0.503V0.5ZM120.803 5.159L120.731 5.2415V22.7825L125.281 27.5H127.526V0.5015H124.947L120.8 5.159H120.803ZM128.969 27.5H154.236V21.77H128.969V27.5ZM85.6771 0.5H80.0276V27.5H86.8253V0.5015H85.6771V0.5ZM23.3825 0.5V27.5H29.6937L34.2325 22.799V0.5015H23.384L23.3825 0.5ZM4.87561 27.5H21.9425V21.77H0L4.87561 27.5ZM111.747 16.865V11.135H88.2669V16.865H111.747ZM128.969 6.23H154.236V0.5H128.969V6.23ZM88.2669 0.5V6.23H113.53V0.5H88.2669ZM44.9044 0.5H52.0748L50.9207 6.23H50.9147L46.6289 27.5H39.4629L44.9059 0.5015L44.9044 0.5ZM61.106 0.5H67.9157L73.3571 27.5H66.1762L61.8904 6.23H52.4685L53.6212 0.5H61.106Z" fill="#2C2F36"/>
</g>
<defs>
<clipPath id="clip0_53_52">
<rect width="236.52" height="27" fill="white" transform="translate(0 0.5)"/>
</clipPath>
</defs>
</svg>
