<svg width="24" height="24" viewBox="0 0 24 24" fill="none" xmlns="http://www.w3.org/2000/svg">
<g clip-path="url(#clip0_8_160)">
<g clip-path="url(#clip1_8_160)">
<path fill-rule="evenodd" clip-rule="evenodd" d="M18.2723 23.8758C18.1859 23.9619 18.0833 24.0302 17.9703 24.0768C17.8574 24.1234 17.7363 24.1474 17.614 24.1474C17.4917 24.1474 17.3706 24.1234 17.2577 24.0768C17.1447 24.0302 17.0421 23.9619 16.9557 23.8758L5.79871 12.7828C5.71212 12.697 5.64343 12.5949 5.59656 12.4826C5.54969 12.3703 5.52556 12.2499 5.52556 12.1283C5.52556 12.0067 5.54969 11.8863 5.59656 11.774C5.64343 11.6617 5.71212 11.5597 5.79871 11.4738L16.9557 0.380852C17.1303 0.207271 17.3671 0.109754 17.614 0.109754C17.8609 0.109755 18.0977 0.207272 18.2723 0.380852C18.4468 0.554432 18.5449 0.789858 18.5449 1.03534C18.5449 1.28082 18.4468 1.51624 18.2723 1.68983L7.77164 12.1283L18.2723 22.5668C18.3588 22.6527 18.4275 22.7547 18.4744 22.867C18.5213 22.9793 18.5454 23.0997 18.5454 23.2213C18.5454 23.3429 18.5213 23.4633 18.4744 23.5756C18.4275 23.6879 18.3588 23.7899 18.2723 23.8758Z" fill="white"/>
</g>
</g>
<defs>
<clipPath id="clip0_8_160">
<rect width="24" height="24" fill="white"/>
</clipPath>
<clipPath id="clip1_8_160">
<rect width="13.0909" height="24.2567" fill="white" transform="translate(18.5454 24.2567) rotate(-180)"/>
</clipPath>
</defs>
</svg>
