<svg width="24" height="24" viewBox="0 0 24 24" fill="none" xmlns="http://www.w3.org/2000/svg">
<g clip-path="url(#clip0_8_157)">
<g clip-path="url(#clip1_8_157)">
<path fill-rule="evenodd" clip-rule="evenodd" d="M5.76338 0.380835C5.84975 0.294747 5.95235 0.226446 6.0653 0.179844C6.17826 0.133241 6.29935 0.109253 6.42165 0.109253C6.54394 0.109253 6.66504 0.133241 6.77799 0.179844C6.89095 0.226446 6.99355 0.294747 7.07991 0.380835L18.2369 11.4738C18.3235 11.5597 18.3922 11.6617 18.4391 11.774C18.486 11.8863 18.5101 12.0067 18.5101 12.1283C18.5101 12.2499 18.486 12.3703 18.4391 12.4826C18.3922 12.5949 18.3235 12.6969 18.2369 12.7828L7.07991 23.8758C6.90533 24.0494 6.66855 24.1469 6.42165 24.1469C6.17475 24.1469 5.93797 24.0494 5.76338 23.8758C5.5888 23.7022 5.49072 23.4668 5.49072 23.2213C5.49072 22.9758 5.5888 22.7404 5.76338 22.5668L16.264 12.1283L5.76338 1.68981C5.6768 1.60394 5.6081 1.50193 5.56123 1.38962C5.51436 1.27731 5.49023 1.15691 5.49023 1.03532C5.49023 0.913729 5.51436 0.793331 5.56123 0.681023C5.6081 0.568716 5.6768 0.466705 5.76338 0.380835Z" fill="white"/>
</g>
</g>
<defs>
<clipPath id="clip0_8_157">
<rect width="24" height="24" fill="white"/>
</clipPath>
<clipPath id="clip1_8_157">
<rect width="13.0909" height="24.2567" fill="white" transform="translate(5.45459)"/>
</clipPath>
</defs>
</svg>
