<svg width="18" height="19" viewBox="0 0 18 19" fill="none" xmlns="http://www.w3.org/2000/svg">
<path d="M6 11.1842C6.56832 11.1842 7.11337 10.9624 7.51523 10.5676C7.91709 10.1728 8.14286 9.6373 8.14286 9.07895C8.14286 7.91684 7.71429 7.39474 7.28571 6.55263C6.36686 4.748 7.09371 3.13874 9 1.5C9.42857 3.60526 10.7143 5.62632 12.4286 6.97368C14.1429 8.32105 15 9.92105 15 11.6053C15 12.3794 14.8448 13.1459 14.5433 13.8611C14.2417 14.5763 13.7998 15.2261 13.2426 15.7735C12.6855 16.3208 12.0241 16.7551 11.2961 17.0513C10.5681 17.3475 9.78793 17.5 9 17.5C8.21207 17.5 7.43185 17.3475 6.7039 17.0513C5.97595 16.7551 5.31451 16.3208 4.75736 15.7735C4.20021 15.2261 3.75825 14.5763 3.45672 13.8611C3.15519 13.1459 3 12.3794 3 11.6053C3 10.6343 3.37114 9.67347 3.85714 9.07895C3.85714 9.6373 4.08291 10.1728 4.48477 10.5676C4.88663 10.9624 5.43168 11.1842 6 11.1842Z" fill="white"/>
</svg>
