<svg width="20" height="24" viewBox="0 0 20 24" fill="none" xmlns="http://www.w3.org/2000/svg">
<g id="Group">
<path id="Vector" d="M9.99261 4.78223C7.22338 4.78223 4.97461 7.03591 4.97461 9.80023C4.97461 12.5646 7.22338 14.8231 9.99261 14.8231C12.7618 14.8231 15.0106 12.5695 15.0106 9.80514C15.0106 7.04082 12.7618 4.78223 9.99261 4.78223ZM9.99261 13.6202C7.88623 13.6202 6.17756 11.9066 6.17756 9.80514C6.17756 7.70367 7.89114 5.99008 9.99261 5.99008C12.0941 5.99008 13.8077 7.70367 13.8077 9.80514C13.8077 11.9066 12.099 13.6202 9.99261 13.6202Z" fill="#0A0A0A"/>
<path id="Vector_2" d="M9.99327 0C9.88034 0 9.7625 0 9.64957 0.00490998C4.80833 0.171849 0.806693 3.9329 0.345155 8.74959C0.256775 9.68249 0.300965 10.6203 0.472814 11.5139C0.472814 11.5139 0.487544 11.6268 0.541554 11.838C0.688854 12.5008 0.909803 13.144 1.18967 13.743C2.1864 16.1047 4.37134 19.743 9.11439 23.6809C9.36479 23.8871 9.67903 24 10.0031 24C10.3272 24 10.6414 23.8871 10.8918 23.6809C15.6299 19.748 17.8149 16.1047 18.8067 13.7627C19.0915 13.1489 19.3124 12.5008 19.4597 11.8429C19.4892 11.725 19.5088 11.6268 19.5236 11.5336C19.6414 10.9296 19.7003 10.311 19.7003 9.69231C19.6905 4.35024 15.3402 0 9.99327 0ZM18.3304 11.3273C18.3304 11.3372 18.3157 11.4206 18.2813 11.5728C18.1488 12.1522 17.9573 12.7169 17.7019 13.2766C16.7543 15.5155 14.6725 18.9771 10.1209 22.7529C10.0767 22.7872 10.0326 22.7971 9.99818 22.7971C9.96872 22.7971 9.91962 22.7872 9.87543 22.7529C5.32388 18.9722 3.23713 15.5106 2.2846 13.257C2.03419 12.7169 1.8427 12.1522 1.71013 11.5679C1.68067 11.4403 1.66594 11.3617 1.66103 11.3372C1.66103 11.3273 1.65612 11.3175 1.65612 11.3077C1.50391 10.5074 1.46463 9.68249 1.54319 8.86743C1.95072 4.64975 5.45154 1.35516 9.69376 1.20786C14.5105 1.04092 18.4875 4.90998 18.4875 9.69722C18.4875 10.2373 18.4335 10.7774 18.3304 11.3273Z" fill="#0A0A0A"/>
</g>
</svg>
