<svg width="20" height="20" viewBox="0 0 20 20" fill="none" xmlns="http://www.w3.org/2000/svg">
<path d="M9.76009 19.6367C9.83191 19.6871 9.91574 19.7124 9.99955 19.7124C10.0834 19.7124 10.1672 19.6871 10.239 19.6367C10.5501 19.4182 17.8546 14.2159 17.8546 8.08596C17.8546 3.75653 14.3308 0.234192 9.99955 0.234192C5.6683 0.234192 2.14453 3.75653 2.14453 8.08596C2.14453 14.2159 9.44901 19.4181 9.76009 19.6367ZM9.99955 1.06753C13.8714 1.06753 17.0212 4.21592 17.0212 8.08596C17.0212 13.1863 11.2563 17.827 9.99934 18.7779C8.74243 17.828 2.97786 13.1915 2.97786 8.08596C2.97786 4.21592 6.12768 1.06753 9.99955 1.06753Z" fill="#004786"/>
<path d="M9.99983 11.7302C12.0331 11.7302 13.6872 10.0761 13.6872 8.04284C13.6872 6.00975 12.0331 4.35571 9.99983 4.35571C7.96656 4.35571 6.3125 6.00977 6.3125 8.04284C6.3125 10.0761 7.96654 11.7302 9.99983 11.7302ZM9.99983 5.18903C11.5735 5.18903 12.8538 6.46913 12.8538 8.04282C12.8538 9.6165 11.5735 10.8968 9.99983 10.8968C8.42615 10.8968 7.14583 9.61652 7.14583 8.04284C7.14583 6.46915 8.42615 5.18903 9.99983 5.18903Z" fill="#004786"/>
</svg>
