<svg width="213" height="24" viewBox="0 0 213 24" fill="none" xmlns="http://www.w3.org/2000/svg">
<g id="logo 1" clip-path="url(#clip0_31_670)">
<path id="Vector" d="M79.4894 18.9067V24H102.24V18.9067H79.4894ZM182.472 4.21333V19.8067L186.503 23.9293L186.573 23.9987H197.088V18.9053H190.797L188.602 16.66V7.344L190.634 5.09333H197.088V0H186.27L182.472 4.21333ZM145.145 4.21333V19.8067L149.173 23.9293L149.24 23.9987H159.759V18.9053H153.466L151.272 16.66V7.344L153.303 5.09333H159.759V0H148.942L145.145 4.21333ZM171.878 0H161.054V5.09333H167.508L169.513 7.32267V16.6667L167.325 18.9067H161.054V24H171.582L175.594 19.8933L175.667 19.8213V4.2L171.952 0.08L171.878 0.00266667V0ZM209.21 0H198.384V5.09333H204.839L206.843 7.32267V16.6667L204.654 18.9067H198.384V24H208.913L212.924 19.8933L212.997 19.8213V4.2L209.281 0.08L209.21 0.00266667V0ZM108.79 4.14133L108.726 4.21467V19.8067L112.823 24H114.845V0.00133333H112.522L108.788 4.14133H108.79ZM116.144 24H138.899V18.9067H116.144V24ZM77.1572 0H72.0695V24H78.1912V0.00133333H77.1572V0ZM21.0573 0V24H26.7409L30.8284 19.8213V0.00133333H21.0587L21.0573 0ZM4.39077 24H19.7605V18.9067H0L4.39077 24ZM100.634 14.5467V9.45333H79.4894V14.5467H100.634ZM116.144 5.09333H138.899V0H116.144V5.09333ZM79.4894 0V5.09333H102.24V0H79.4894ZM40.439 0H46.8964L45.857 5.09333H45.8516L41.992 24H35.5386L40.4403 0.00133333L40.439 0ZM55.0295 0H61.162L66.0624 24H59.5955L55.7359 5.09333H47.2509L48.289 0H55.0295Z" fill="white"/>
</g>
<defs>
<clipPath id="clip0_31_670">
<rect width="213" height="24" fill="white"/>
</clipPath>
</defs>
</svg>
