<svg width="119" height="117" viewBox="0 0 119 117" fill="none" xmlns="http://www.w3.org/2000/svg">
<g clip-path="url(#clip0_24_695)">
<path fill-rule="evenodd" clip-rule="evenodd" d="M58.9783 4.63574C79.0551 4.63574 95.3306 21.1251 95.3306 41.4658C95.3306 61.8066 79.0551 78.296 58.9783 78.296C38.9015 78.296 22.626 61.8066 22.626 41.4658C22.626 21.1251 38.9015 4.63574 58.9783 4.63574Z" stroke="#0A56A2" stroke-width="5.31859" stroke-miterlimit="22.9256"/>
<path fill-rule="evenodd" clip-rule="evenodd" d="M60.5991 7.57959L64.41 13.4424L41.4697 54.6296H86.146L88.3078 58.2324L30.7881 58.4869L60.5991 7.57959Z" fill="#0A56A2" stroke="#0A56A2" stroke-width="0.26593" stroke-miterlimit="22.9256"/>
<path fill-rule="evenodd" clip-rule="evenodd" d="M67.8257 19.4033L50.0098 51.2015H56.6625L58.3538 47.142H74.1402L76.7336 51.5397L84.6269 51.4271L67.8257 19.4033Z" fill="#0A56A2" stroke="#0A56A2" stroke-width="0.26593" stroke-miterlimit="22.9256"/>
<path fill-rule="evenodd" clip-rule="evenodd" d="M59.9316 43.5333H71.9969L66.4717 31.0171L59.9316 43.5333Z" fill="white" stroke="#0A56A2" stroke-width="0.26593" stroke-miterlimit="22.9256"/>
<path d="M10.0051 101.471H7.80759L6.93734 99.1771H2.8964L2.05912 101.471H-0.0986328L3.81346 91.3954H5.96882L10.0051 101.471ZM6.27597 97.4744L4.87585 93.7454L3.51549 97.4744H6.27597ZM15.342 91.3954H17.3825V96.8553C17.3825 97.723 17.4083 98.2836 17.4575 98.5392C17.5443 98.952 17.7483 99.2851 18.0719 99.5336C18.398 99.7847 18.8413 99.909 19.4041 99.909C19.9741 99.909 20.4056 99.7917 20.6964 99.5548C20.9872 99.3179 21.1609 99.0294 21.2195 98.6846C21.2781 98.3399 21.3086 97.77 21.3086 96.9726V91.3954H23.3491V96.6935C23.3491 97.9036 23.2951 98.7598 23.1849 99.2593C23.0746 99.7589 22.8729 100.181 22.5775 100.526C22.2843 100.87 21.8902 101.143 21.3977 101.347C20.9028 101.551 20.2602 101.654 19.4652 101.654C18.5059 101.654 17.7789 101.544 17.284 101.321C16.7891 101.098 16.3974 100.81 16.109 100.453C15.8205 100.097 15.6328 99.726 15.5414 99.3343C15.4077 98.7574 15.342 97.9036 15.342 96.7755V91.3954ZM32.544 101.471V93.098H29.5606V91.3954H37.5536V93.098H34.5845V101.471H32.544ZM43.2258 96.494C43.2258 95.4669 43.3806 94.6037 43.6879 93.9048C43.9154 93.3912 44.2296 92.9291 44.626 92.521C45.0223 92.113 45.4562 91.8105 45.9277 91.611C46.5562 91.346 47.2809 91.2124 48.1018 91.2124C49.5887 91.2124 50.7755 91.6745 51.6691 92.5962C52.5602 93.5201 53.0059 94.8031 53.0059 96.4472C53.0059 98.0772 52.5626 99.3531 51.6784 100.273C50.7942 101.194 49.6099 101.654 48.13 101.654C46.6312 101.654 45.4375 101.196 44.5532 100.279C43.6692 99.3647 43.2258 98.1031 43.2258 96.494ZM45.3226 96.4261C45.3226 97.5683 45.5876 98.4337 46.1153 99.0248C46.6431 99.6134 47.3137 99.909 48.1252 99.909C48.9391 99.909 49.6051 99.6158 50.1282 99.0318C50.6489 98.4454 50.9092 97.5683 50.9092 96.3979C50.9092 95.2416 50.6559 94.3786 50.1469 93.8111C49.6403 93.2411 48.9673 92.9573 48.1252 92.9573C47.2857 92.9573 46.6078 93.2458 46.0942 93.8204C45.5805 94.3973 45.3226 95.2652 45.3226 96.4261ZM59.4239 101.471V91.4798H61.4644V99.7682H66.5162V101.471H59.4239ZM72.4136 101.471V91.3954H74.454V101.471H72.4136ZM81.1676 91.3954H84.8779C85.7153 91.3954 86.3531 91.4587 86.7918 91.5876C87.3804 91.7612 87.887 92.0708 88.3068 92.5164C88.729 92.9597 89.0479 93.5038 89.2684 94.1488C89.4866 94.7914 89.5968 95.5864 89.5968 96.5293C89.5968 97.3595 89.4936 98.0725 89.2871 98.6729C89.0362 99.407 88.6774 100 88.2107 100.453C87.8588 100.798 87.3828 101.065 86.7847 101.258C86.3368 101.401 85.7387 101.471 84.9881 101.471H81.1676V91.3954ZM83.2081 93.098V99.7682H84.7209C85.2861 99.7682 85.6942 99.7353 85.9451 99.672C86.2758 99.59 86.5478 99.4492 86.7636 99.2523C86.9817 99.0552 87.1576 98.7316 87.2936 98.2812C87.432 97.831 87.5001 97.2142 87.5001 96.4354C87.5001 95.6568 87.432 95.0611 87.2936 94.6436C87.1576 94.2262 86.9653 93.9024 86.7191 93.668C86.4728 93.4357 86.1609 93.2763 85.7809 93.1942C85.4995 93.1308 84.9436 93.098 84.118 93.098H83.2081ZM96.104 101.471V91.3954H103.562V93.098H98.1445V95.3355H103.182V97.0383H98.1445V99.7682H103.759V101.471H96.104ZM110.264 101.471V91.3954H114.549C115.626 91.3954 116.409 91.4867 116.897 91.6674C117.387 91.848 117.776 92.1692 118.069 92.6313C118.363 93.0957 118.51 93.6233 118.51 94.2191C118.51 94.9766 118.29 95.6005 117.847 96.093C117.403 96.5855 116.742 96.8952 115.86 97.0242C116.299 97.2797 116.66 97.5612 116.944 97.8685C117.23 98.1756 117.614 98.7221 118.098 99.5056L119.326 101.471H116.894L115.435 99.271C114.913 98.49 114.554 97.9975 114.359 97.7934C114.167 97.5917 113.963 97.451 113.747 97.376C113.529 97.3009 113.186 97.2634 112.717 97.2634H112.305V101.471H110.264ZM112.305 95.6592H113.81C114.786 95.6592 115.393 95.6169 115.637 95.5348C115.879 95.4528 116.071 95.3097 116.207 95.108C116.346 94.9063 116.414 94.653 116.414 94.3505C116.414 94.0104 116.322 93.7383 116.142 93.5272C115.961 93.3184 115.705 93.1872 115.377 93.1332C115.21 93.1098 114.715 93.098 113.892 93.098H112.305V95.6592Z" fill="#0A56A2"/>
<path d="M-0.267578 107.465H119.062" stroke="#0A56A2" stroke-width="0.332412" stroke-miterlimit="22.9256"/>
<path d="M22.5871 114.656V114.183H24.2926V115.677C24.0309 115.885 23.7608 116.043 23.4821 116.148C23.2035 116.253 22.9174 116.305 22.6246 116.305C22.2287 116.305 21.8695 116.221 21.5458 116.051C21.223 115.882 20.9782 115.636 20.814 115.317C20.649 114.996 20.5664 114.637 20.5664 114.242C20.5664 113.85 20.6479 113.484 20.8121 113.144C20.9763 112.804 21.2118 112.552 21.5195 112.388C21.8272 112.223 22.1818 112.14 22.5833 112.14C22.8741 112.14 23.1378 112.187 23.3733 112.282C23.6088 112.377 23.7936 112.508 23.9267 112.676C24.0609 112.845 24.1622 113.065 24.2316 113.336L23.7504 113.468C23.6894 113.263 23.6144 113.102 23.5253 112.983C23.4351 112.866 23.3076 112.772 23.1406 112.702C22.9745 112.632 22.7897 112.596 22.5861 112.596C22.3432 112.596 22.133 112.634 21.9548 112.708C21.7774 112.782 21.6349 112.879 21.5251 113.001C21.4163 113.122 21.3319 113.256 21.2718 113.4C21.1695 113.65 21.1179 113.921 21.1179 114.212C21.1179 114.573 21.1799 114.874 21.3028 115.117C21.4267 115.359 21.6067 115.539 21.8422 115.656C22.0786 115.774 22.3291 115.833 22.5946 115.833C22.8253 115.833 23.0506 115.788 23.2701 115.698C23.4896 115.608 23.6556 115.514 23.7691 115.411V114.656H22.5871ZM25.793 116.238V112.208H27.5792C27.9385 112.208 28.2115 112.244 28.3982 112.316C28.5848 112.389 28.734 112.516 28.8457 112.699C28.9574 112.882 29.0127 113.085 29.0127 113.306C29.0127 113.592 28.9198 113.833 28.735 114.029C28.5501 114.226 28.2651 114.349 27.8785 114.403C28.0201 114.47 28.1271 114.538 28.2003 114.604C28.356 114.746 28.5033 114.925 28.6412 115.14L29.3382 116.238H28.6722L28.1393 115.399C27.9845 115.156 27.8559 114.971 27.7555 114.843C27.6542 114.714 27.5642 114.625 27.4844 114.574C27.4057 114.523 27.3241 114.487 27.2415 114.467C27.1814 114.454 27.083 114.448 26.945 114.448H26.3278V116.238H25.793ZM26.3278 113.986H27.4723C27.7162 113.986 27.9057 113.961 28.0426 113.91C28.1796 113.861 28.2838 113.78 28.3542 113.668C28.4254 113.558 28.4611 113.437 28.4611 113.307C28.4611 113.117 28.3926 112.959 28.2547 112.836C28.1168 112.713 27.8992 112.652 27.6017 112.652H26.3278V113.986ZM30.3855 114.276C30.3855 113.608 30.5656 113.085 30.9249 112.707C31.2842 112.329 31.7477 112.14 32.3161 112.14C32.6885 112.14 33.0235 112.229 33.3228 112.406C33.621 112.584 33.8491 112.831 34.0057 113.149C34.1623 113.467 34.2412 113.827 34.2412 114.229C34.2412 114.637 34.1586 115.003 33.9935 115.325C33.8285 115.648 33.5948 115.892 33.2927 116.057C32.9897 116.223 32.6633 116.305 32.3133 116.305C31.9334 116.305 31.5948 116.214 31.2955 116.031C30.9971 115.848 30.7701 115.598 30.6163 115.281C30.4624 114.965 30.3855 114.63 30.3855 114.276ZM30.9371 114.286C30.9371 114.771 31.0674 115.152 31.3283 115.431C31.5891 115.71 31.9166 115.849 32.3105 115.849C32.7121 115.849 33.0413 115.709 33.3011 115.427C33.5601 115.146 33.6895 114.746 33.6895 114.228C33.6895 113.901 33.6342 113.615 33.5236 113.371C33.4128 113.127 33.2505 112.938 33.0376 112.803C32.8236 112.669 32.5844 112.602 32.3189 112.602C31.9418 112.602 31.6172 112.731 31.3452 112.99C31.0732 113.249 30.9371 113.681 30.9371 114.286ZM38.2689 112.208H38.8036V114.535C38.8036 114.94 38.7577 115.262 38.6666 115.5C38.5748 115.738 38.4096 115.932 38.1714 116.081C37.9321 116.23 37.6197 116.305 37.2313 116.305C36.8551 116.305 36.5465 116.241 36.3073 116.11C36.0672 115.98 35.8963 115.792 35.7941 115.546C35.6918 115.299 35.6402 114.962 35.6402 114.535V112.208H36.175V114.534C36.175 114.884 36.2079 115.143 36.2726 115.308C36.3374 115.474 36.448 115.603 36.6065 115.692C36.7642 115.782 36.9574 115.827 37.1854 115.827C37.5757 115.827 37.8542 115.738 38.0203 115.561C38.1864 115.382 38.2689 115.041 38.2689 114.534V112.208ZM40.396 116.238V112.208H41.9176C42.1849 112.208 42.3895 112.221 42.5311 112.246C42.7291 112.279 42.8951 112.342 43.0292 112.434C43.1634 112.527 43.2714 112.656 43.353 112.822C43.4345 112.988 43.4749 113.171 43.4749 113.371C43.4749 113.712 43.366 114.002 43.1474 114.239C42.9299 114.476 42.5349 114.594 41.9644 114.594H40.9306V116.238H40.396ZM40.9306 114.121H41.972C42.3172 114.121 42.5612 114.058 42.7065 113.929C42.8511 113.801 42.9232 113.62 42.9232 113.387C42.9232 113.219 42.8811 113.074 42.7957 112.954C42.7104 112.834 42.5978 112.755 42.4589 112.716C42.3688 112.693 42.2028 112.681 41.9616 112.681H40.9306V114.121ZM47.8721 114.276C47.8721 113.608 48.0522 113.085 48.4115 112.707C48.7708 112.329 49.2343 112.14 49.8027 112.14C50.1751 112.14 50.5101 112.229 50.8094 112.406C51.1076 112.584 51.3357 112.831 51.4923 113.149C51.6489 113.467 51.7278 113.827 51.7278 114.229C51.7278 114.637 51.6452 115.003 51.4801 115.325C51.3151 115.648 51.0814 115.892 50.7793 116.057C50.4763 116.223 50.1499 116.305 49.7999 116.305C49.42 116.305 49.0814 116.214 48.7821 116.031C48.4837 115.848 48.2567 115.598 48.1029 115.281C47.9491 114.965 47.8721 114.63 47.8721 114.276ZM48.4237 114.286C48.4237 114.771 48.5541 115.152 48.8149 115.431C49.0757 115.71 49.4032 115.849 49.7971 115.849C50.1987 115.849 50.5279 115.709 50.7877 115.427C51.0467 115.146 51.1761 114.746 51.1761 114.228C51.1761 113.901 51.1208 113.615 51.0102 113.371C50.8994 113.127 50.7371 112.938 50.5242 112.803C50.3102 112.669 50.071 112.602 49.8055 112.602C49.4284 112.602 49.1039 112.731 48.8318 112.99C48.5598 113.249 48.4237 113.681 48.4237 114.286ZM53.1437 116.238V112.208H55.8625V112.681H53.6785V113.936H55.5698V114.409H53.6785V116.238H53.1437ZM63.4107 114.824L63.9455 114.959C63.834 115.397 63.6332 115.73 63.3432 115.96C63.0533 116.19 62.6987 116.305 62.2795 116.305C61.846 116.305 61.4933 116.217 61.2212 116.04C60.9492 115.864 60.7428 115.607 60.6011 115.273C60.4594 114.937 60.3882 114.577 60.3882 114.193C60.3882 113.773 60.4678 113.408 60.6283 113.095C60.7887 112.783 61.0167 112.545 61.3122 112.383C61.6077 112.221 61.9332 112.14 62.2879 112.14C62.6913 112.14 63.0299 112.242 63.3038 112.448C63.5787 112.653 63.7701 112.941 63.878 113.313L63.3545 113.437C63.2617 113.144 63.1257 112.93 62.9483 112.797C62.771 112.663 62.5477 112.596 62.2784 112.596C61.9698 112.596 61.7109 112.67 61.5036 112.818C61.2962 112.967 61.1499 113.166 61.0664 113.416C60.982 113.666 60.9397 113.924 60.9397 114.19C60.9397 114.532 60.9895 114.832 61.0889 115.087C61.1884 115.343 61.3431 115.533 61.5534 115.66C61.7634 115.787 61.9904 115.849 62.2353 115.849C62.5337 115.849 62.785 115.763 62.9915 115.592C63.1979 115.419 63.3376 115.164 63.4107 114.824ZM65.1438 114.276C65.1438 113.608 65.324 113.085 65.6833 112.707C66.0425 112.329 66.506 112.14 67.0745 112.14C67.4469 112.14 67.7818 112.229 68.0811 112.406C68.3794 112.584 68.6074 112.831 68.764 113.149C68.9207 113.467 68.9995 113.827 68.9995 114.229C68.9995 114.637 68.9169 115.003 68.7518 115.325C68.5868 115.648 68.3532 115.892 68.0511 116.057C67.7481 116.223 67.4216 116.305 67.0717 116.305C66.6918 116.305 66.3531 116.214 66.0538 116.031C65.7555 115.848 65.5285 115.598 65.3746 115.281C65.2208 114.965 65.1438 114.63 65.1438 114.276ZM65.6955 114.286C65.6955 114.771 65.8258 115.152 66.0867 115.431C66.3474 115.71 66.6749 115.849 67.0689 115.849C67.4704 115.849 67.7997 115.709 68.0595 115.427C68.3185 115.146 68.4479 114.746 68.4479 114.228C68.4479 113.901 68.3925 113.615 68.2819 113.371C68.1711 113.127 68.0088 112.938 67.7959 112.803C67.582 112.669 67.3428 112.602 67.0773 112.602C66.7002 112.602 66.3756 112.731 66.1035 112.99C65.8315 113.249 65.6955 113.681 65.6955 114.286ZM70.3761 116.238V112.208H71.1754L72.1286 115.06C72.2167 115.326 72.2806 115.525 72.3208 115.657C72.3669 115.511 72.4391 115.295 72.5367 115.011L73.5066 112.208H74.2205V116.238H73.7083V112.866L72.532 116.238H72.0516L70.8883 112.804V116.238H70.3761ZM75.7782 116.238V112.208H77.2998C77.5671 112.208 77.7717 112.221 77.9134 112.246C78.1113 112.279 78.2773 112.342 78.4114 112.434C78.5456 112.527 78.6536 112.656 78.7352 112.822C78.8167 112.988 78.8571 113.171 78.8571 113.371C78.8571 113.712 78.7482 114.002 78.5296 114.239C78.3121 114.476 77.9171 114.594 77.3467 114.594H76.3129V116.238H75.7782ZM76.3129 114.121H77.3542C77.6994 114.121 77.9434 114.058 78.0887 113.929C78.2333 113.801 78.3055 113.62 78.3055 113.387C78.3055 113.219 78.2633 113.074 78.1779 112.954C78.0926 112.834 77.98 112.755 77.8412 112.716C77.751 112.693 77.5851 112.681 77.3439 112.681H76.3129V114.121ZM79.3753 116.238L80.9213 112.208H81.5077L83.1494 116.238H82.5415L82.0752 115.016H80.3781L79.9409 116.238H79.3753ZM80.5347 114.583H81.9081L81.4879 113.466C81.3613 113.126 81.2655 112.846 81.1989 112.624C81.1436 112.887 81.0695 113.145 80.9766 113.4L80.5347 114.583ZM84.2679 116.238V112.208H84.8158L86.9304 115.371V112.208H87.4426V116.238H86.8947L84.7802 113.074V116.238H84.2679ZM89.1305 116.238V112.208H89.6653V116.238H89.1305ZM91.3177 116.238V112.208H94.2277V112.681H91.8525V113.919H94.0758V114.392H91.8525V115.765H94.3235V116.238H91.3177ZM95.5884 114.943L96.0894 114.898C96.1128 115.101 96.1682 115.267 96.2555 115.397C96.3427 115.527 96.4778 115.632 96.6607 115.713C96.8437 115.792 97.05 115.833 97.2789 115.833C97.4825 115.833 97.6617 115.803 97.8174 115.742C97.9731 115.681 98.0885 115.597 98.1646 115.491C98.2405 115.385 98.2789 115.27 98.2789 115.146C98.2789 115.02 98.2423 114.91 98.1692 114.816C98.0961 114.722 97.9751 114.643 97.8062 114.578C97.6983 114.537 97.4591 114.471 97.0885 114.382C96.7179 114.293 96.459 114.21 96.3108 114.131C96.1185 114.029 95.9758 113.904 95.8821 113.755C95.7873 113.605 95.7403 113.437 95.7403 113.253C95.7403 113.048 95.7986 112.858 95.914 112.681C96.0293 112.504 96.1972 112.37 96.4195 112.278C96.6411 112.186 96.8877 112.14 97.1588 112.14C97.4572 112.14 97.7207 112.188 97.9488 112.285C98.1767 112.38 98.3522 112.522 98.475 112.709C98.5979 112.896 98.6636 113.108 98.673 113.345L98.1607 113.384C98.1336 113.13 98.0406 112.938 97.8821 112.808C97.7237 112.678 97.4891 112.613 97.1794 112.613C96.8567 112.613 96.6212 112.672 96.4741 112.79C96.3267 112.908 96.2527 113.051 96.2527 113.218C96.2527 113.362 96.3052 113.482 96.4093 113.575C96.5125 113.668 96.7799 113.765 97.2132 113.862C97.6467 113.961 97.9441 114.046 98.1054 114.12C98.339 114.227 98.5125 114.363 98.6242 114.53C98.7359 114.695 98.7912 114.885 98.7912 115.101C98.7912 115.316 98.7302 115.516 98.6073 115.706C98.4845 115.895 98.309 116.043 98.0792 116.148C97.8493 116.253 97.5914 116.305 97.3034 116.305C96.9393 116.305 96.6344 116.252 96.3887 116.146C96.1419 116.04 95.9496 115.88 95.8098 115.666C95.6691 115.454 95.596 115.212 95.5884 114.943Z" fill="#0A56A2"/>
</g>
<defs>
<clipPath id="clip0_24_695">
<rect width="119" height="116.495" fill="white"/>
</clipPath>
</defs>
</svg>
