<svg width="234" height="22" viewBox="0 0 234 22" fill="none" xmlns="http://www.w3.org/2000/svg">
<g id="&#208;&#161;&#208;&#187;&#208;&#190;&#208;&#185;_1">
<g id="Group">
<path id="Vector" d="M35.5059 15.9988H24.3372L22.0323 21.2526H18.9478L28.4555 0.25415H31.4214L40.9631 21.2526H37.8108L35.5059 15.9988ZM34.4551 13.5922L29.93 3.30478L25.4049 13.5922H34.4551Z" fill="white"/>
<path id="Vector_2" d="M116.5 12.1685C117.229 13.0329 117.602 14.1514 117.602 15.5073C117.602 17.3207 116.941 18.7443 115.602 19.7443C114.263 20.7442 112.331 21.2526 109.789 21.2526H100.179V0.25415H109.212C111.517 0.25415 113.314 0.711736 114.602 1.64387C115.89 2.57601 116.534 3.91489 116.534 5.64358C116.534 6.77909 116.246 7.76208 115.687 8.55863C115.11 9.35519 114.314 9.96531 113.263 10.3551C114.704 10.6941 115.771 11.3042 116.5 12.1685ZM103.162 9.49077H109.009C110.467 9.49077 111.585 9.20266 112.348 8.62643C113.11 8.0502 113.5 7.2028 113.5 6.08424C113.5 4.96568 113.11 4.10132 112.331 3.52509C111.551 2.93191 110.433 2.6438 108.992 2.6438H103.145V9.49077H103.162ZM114.568 15.287C114.568 14.0836 114.161 13.2024 113.348 12.6261C112.534 12.0499 111.331 11.7787 109.738 11.7787H103.162V18.8969H109.738C112.958 18.8799 114.568 17.6766 114.568 15.287Z" fill="white"/>
<path id="Vector_3" d="M143.82 20.1002C142.125 19.1681 140.786 17.88 139.82 16.2361C138.854 14.5922 138.363 12.7618 138.363 10.745C138.363 8.72819 138.854 6.89781 139.82 5.25386C140.786 3.60991 142.125 2.32186 143.82 1.38972C145.515 0.457586 147.43 0 149.548 0C151.65 0 153.548 0.457586 155.243 1.38972C156.938 2.32186 158.277 3.59296 159.226 5.23691C160.192 6.86391 160.666 8.69429 160.666 10.745C160.666 12.7957 160.192 14.6261 159.226 16.2531C158.26 17.8801 156.938 19.1681 155.243 20.1002C153.548 21.0324 151.65 21.49 149.548 21.49C147.43 21.49 145.532 21.0324 143.82 20.1002ZM153.718 17.7784C154.955 17.0835 155.921 16.1175 156.633 14.8803C157.344 13.6431 157.7 12.2703 157.7 10.7619C157.7 9.23662 157.344 7.86383 156.633 6.64358C155.921 5.40638 154.955 4.44035 153.718 3.74549C152.48 3.05062 151.108 2.69472 149.565 2.69472C148.023 2.69472 146.633 3.05062 145.379 3.74549C144.125 4.44035 143.142 5.40638 142.43 6.64358C141.718 7.88078 141.363 9.25357 141.363 10.7619C141.363 12.2872 141.718 13.66 142.43 14.8803C143.142 16.1175 144.125 17.0835 145.379 17.7784C146.633 18.4732 148.023 18.8291 149.565 18.8291C151.091 18.8291 152.48 18.4732 153.718 17.7784Z" fill="white"/>
<path id="Vector_4" d="M189.851 20.1002C188.156 19.1681 186.817 17.88 185.851 16.2361C184.885 14.5922 184.394 12.7618 184.394 10.745C184.394 8.72819 184.885 6.89781 185.851 5.25386C186.817 3.60991 188.156 2.32186 189.851 1.38972C191.546 0.457586 193.461 0 195.579 0C197.681 0 199.579 0.457586 201.274 1.38972C202.968 2.32186 204.307 3.59296 205.256 5.23691C206.222 6.86391 206.697 8.69429 206.697 10.745C206.697 12.7957 206.222 14.6261 205.256 16.2531C204.29 17.8801 202.968 19.1681 201.274 20.1002C199.579 21.0324 197.681 21.49 195.579 21.49C193.461 21.49 191.563 21.0324 189.851 20.1002ZM199.748 17.7784C200.986 17.0835 201.952 16.1175 202.663 14.8803C203.375 13.6431 203.731 12.2703 203.731 10.7619C203.731 9.23662 203.375 7.86383 202.663 6.64358C201.952 5.40638 200.986 4.44035 199.748 3.74549C198.511 3.05062 197.138 2.69472 195.596 2.69472C194.054 2.69472 192.664 3.05062 191.41 3.74549C190.156 4.44035 189.173 5.40638 188.461 6.64358C187.749 7.88078 187.393 9.25357 187.393 10.7619C187.393 12.2872 187.749 13.66 188.461 14.8803C189.173 16.1175 190.156 17.0835 191.41 17.7784C192.664 18.4732 194.054 18.8291 195.596 18.8291C197.121 18.8291 198.511 18.4732 199.748 17.7784Z" fill="white"/>
<path id="Vector_5" d="M70.9102 15.914V0.25415H67.9613V18.6426H59.2331V0.25415H56.3011V18.6426H47.556V0.25415H44.5901V21.2526H68.5714L70.9102 15.914Z" fill="white"/>
<path id="Vector_6" d="M136.736 0.288038V0.25415H119.432V2.86414H126.601V21.2526H129.55V2.86414H135.617L136.736 0.288038Z" fill="white"/>
<g id="Group_2">
<path id="Vector_7" d="M2.96589 10.389V2.79634H14.7108L15.8463 0.321946V0.25415H0V16.9479L2.96589 10.389Z" fill="white"/>
<path id="Vector_8" d="M15.2191 10.3553C13.9141 9.32152 12.0159 8.79614 9.52458 8.79614H7.33829L6.28752 11.1689H8.88056C12.4057 11.1689 14.1683 12.4399 14.1683 14.9821C14.1683 16.2702 13.7107 17.2362 12.8125 17.8972C11.9142 18.5581 10.6092 18.8802 8.88056 18.8802H2.96573V18.7107L2.57593 19.6089L1.84717 21.2529H8.99918C11.6261 21.2529 13.6429 20.7105 15.0496 19.6089C16.4563 18.5073 17.1681 16.9311 17.1681 14.8635C17.1681 12.8975 16.5071 11.4061 15.2191 10.3553Z" fill="white"/>
</g>
<g id="Group_3">
<path id="Vector_9" d="M86.8411 0.25415H84.0446L74.5369 21.2526H77.6214L86.8411 0.25415Z" fill="white"/>
<path id="Vector_10" d="M93.0949 13.5923H84.0786L84.0617 13.6431L83.0278 15.9989H91.095L93.4169 21.2528H96.5692L93.0949 13.5923Z" fill="white"/>
</g>
<g id="Group_4">
<path id="Vector_11" d="M233.966 0.220459H233.187L229.458 8.66053L231.085 5.93192L231.119 21.2359H234L233.966 0.220459Z" fill="white"/>
<path id="Vector_12" d="M222.662 14.6432L214.103 0.220459H211.629V21.2359H214.51V6.01666L221.374 17.4735L222.662 14.6432Z" fill="white"/>
</g>
<g id="Group_5">
<path id="Vector_13" d="M179.529 0.25415L171.954 10.7449L179.665 21.2357L179.682 21.2526H183.105L175.242 10.4229L182.749 0.25415H179.529Z" fill="white"/>
<path id="Vector_14" d="M168.496 9.37212V0.25415H165.547V21.2526H168.496V12.016V9.37212Z" fill="white"/>
</g>
</g>
</g>
</svg>
