<svg width="14" height="17" viewBox="0 0 14 17" fill="none" xmlns="http://www.w3.org/2000/svg">
<g id="Group">
<path id="Vector" d="M6.99524 3.68823C5.14908 3.68823 3.6499 5.19069 3.6499 7.03357C3.6499 8.87645 5.14908 10.3822 6.99524 10.3822C8.84139 10.3822 10.3406 8.87972 10.3406 7.03684C10.3406 5.19396 8.84139 3.68823 6.99524 3.68823ZM6.99524 9.58021C5.59098 9.58021 4.45187 8.43782 4.45187 7.03684C4.45187 5.63586 5.59426 4.49347 6.99524 4.49347C8.39622 4.49347 9.53861 5.63586 9.53861 7.03684C9.53861 8.43782 8.39949 9.58021 6.99524 9.58021Z" fill="white"/>
<path id="Vector_2" d="M6.99535 0.5C6.92007 0.5 6.84151 0.5 6.76622 0.503273C3.53872 0.614566 0.870966 3.12193 0.563274 6.33306C0.504354 6.95499 0.533814 7.5802 0.64838 8.17594C0.64838 8.17594 0.6582 8.25123 0.694207 8.39198C0.792406 8.83388 0.939706 9.26268 1.12629 9.66203C1.79077 11.2365 3.2474 13.662 6.40943 16.2872C6.57637 16.4247 6.78586 16.5 7.0019 16.5C7.21794 16.5 7.42743 16.4247 7.59437 16.2872C10.7531 13.6653 12.2098 11.2365 12.871 9.67512C13.0608 9.26596 13.2081 8.83388 13.3063 8.39525C13.326 8.31669 13.3391 8.25123 13.3489 8.18903C13.4274 7.78642 13.4667 7.37398 13.4667 6.96154C13.4602 3.40016 10.56 0.5 6.99535 0.5ZM12.5535 8.05155C12.5535 8.0581 12.5436 8.11375 12.5207 8.21522C12.4323 8.60147 12.3047 8.97791 12.1345 9.35106C11.5027 10.8437 10.1148 13.1514 7.08046 15.6686C7.051 15.6915 7.02154 15.698 6.99863 15.698C6.97899 15.698 6.94625 15.6915 6.91679 15.6686C3.88242 13.1481 2.49126 10.8404 1.85624 9.33797C1.6893 8.97791 1.56164 8.60147 1.47326 8.21195C1.45362 8.12684 1.4438 8.07447 1.44052 8.0581C1.44052 8.05155 1.43725 8.04501 1.43725 8.03846C1.33578 7.50491 1.30959 6.95499 1.36196 6.41162C1.63365 3.59984 3.96753 1.40344 6.79568 1.30524C10.0068 1.19394 12.6582 3.77332 12.6582 6.96481C12.6582 7.32488 12.6222 7.68494 12.5535 8.05155Z" fill="white"/>
</g>
</svg>
