<svg width="18" height="18" viewBox="0 0 18 18" fill="none" xmlns="http://www.w3.org/2000/svg">
<g clip-path="url(#clip0_6_241)">
<path d="M9.12045 3.06675C9.12045 2.87258 9.27784 2.71519 9.47201 2.71519C11.0247 2.71519 12.4843 3.3198 13.5822 4.41766C14.6801 5.51552 15.2847 6.97521 15.2847 8.52785C15.2847 8.72202 15.1273 8.87941 14.9331 8.87941C14.7389 8.87941 14.5816 8.72202 14.5816 8.52785C14.5816 7.16302 14.0501 5.87992 13.085 4.91484C12.1199 3.94977 10.8368 3.41828 9.47201 3.41828C9.27784 3.41831 9.12045 3.26092 9.12045 3.06675ZM9.47201 1.00417C11.4817 1.00417 13.3711 1.78678 14.7921 3.20783C16.2132 4.62885 16.9958 6.51825 16.9958 8.52792C16.9958 8.72209 17.1532 8.87948 17.3473 8.87948C17.5415 8.87948 17.6989 8.72209 17.6989 8.52792C17.6989 6.33045 16.8432 4.26449 15.2893 2.71065C13.7354 1.15675 11.6695 0.301043 9.47201 0.301043C9.27784 0.301043 9.12045 0.458438 9.12045 0.652605C9.12045 0.846773 9.27784 1.00417 9.47201 1.00417ZM9.47201 5.83253C10.192 5.83253 10.8688 6.1129 11.3779 6.62196C11.887 7.13106 12.1674 7.80796 12.1674 8.52789C12.1674 8.72205 12.3248 8.87945 12.5189 8.87945C12.7131 8.87945 12.8705 8.72205 12.8705 8.52789C12.8705 7.62012 12.517 6.7667 11.8751 6.12478C11.2332 5.4829 10.3798 5.1294 9.47201 5.1294C9.27784 5.1294 9.12045 5.2868 9.12045 5.48096C9.12045 5.67513 9.27784 5.83253 9.47201 5.83253ZM17.4596 16.143L17.1784 16.4242C16.2645 17.3381 15.1774 17.86 13.9473 17.9754C13.773 17.9917 13.5958 17.9999 13.4158 17.9999C12.5058 17.9999 11.5243 17.7914 10.4899 17.3777C7.84059 16.3181 5.54105 14.1902 4.67536 13.3245C3.80968 12.4588 1.68177 10.1593 0.622164 7.51004C0.126602 6.271 -0.0744568 5.10775 0.024508 4.0526C0.139891 2.82252 0.66175 1.73542 1.57567 0.821531L1.85685 0.540352C2.20529 0.191883 2.66959 0 3.16424 0C3.65889 0 4.1232 0.191883 4.47163 0.540352L6.41848 2.4872C7.13936 3.20808 7.13936 4.38107 6.41848 5.10194L5.75909 5.76134C5.36763 6.1528 5.30898 6.74775 5.61657 7.20805C6.273 8.19053 7.06096 9.14379 7.9585 10.0413C8.85611 10.9389 9.80937 11.7269 10.7918 12.3833C11.2522 12.6909 11.8471 12.6323 12.2385 12.2408L12.8979 11.5814C13.2464 11.233 13.7107 11.0411 14.2053 11.0411C14.6999 11.0411 15.1642 11.2329 15.5127 11.5814L17.4595 13.5283C17.8079 13.8767 17.9999 14.341 17.9999 14.8357C17.9999 15.3303 17.808 15.7946 17.4596 16.143ZM17.2968 14.8357C17.2968 14.5288 17.178 14.2411 16.9624 14.0255L15.0155 12.0786C14.7999 11.863 14.5122 11.7442 14.2053 11.7442C13.8985 11.7442 13.6108 11.863 13.3952 12.0786L12.7358 12.738C12.1041 13.3697 11.1441 13.4643 10.4013 12.968C9.38061 12.2861 8.39148 11.4687 7.46136 10.5386C6.5313 9.60852 5.71395 8.61943 5.03195 7.59871C4.53562 6.85589 4.63022 5.89588 5.26195 5.26416L5.92134 4.6048C6.36807 4.15807 6.36807 3.43118 5.92134 2.98445L3.97449 1.0376C3.7588 0.821883 3.47105 0.703125 3.16424 0.703125C2.8574 0.703125 2.56968 0.821883 2.35407 1.03753L2.07289 1.31868C0.57052 2.82104 0.302102 4.81627 1.27505 7.2489C2.28625 9.7772 4.33755 11.9923 5.17258 12.8273C6.00757 13.6623 8.22266 15.7136 10.751 16.7248C13.1836 17.6978 15.1789 17.4294 16.6812 15.927L16.9624 15.6458C17.178 15.4302 17.2968 15.1425 17.2968 14.8357Z" fill="#004786"/>
</g>
<defs>
<clipPath id="clip0_6_241">
<rect width="18" height="18" fill="white"/>
</clipPath>
</defs>
</svg>
