<svg width="19" height="18" viewBox="0 0 19 18" fill="none" xmlns="http://www.w3.org/2000/svg">
    <g clip-path="url(#clip0_1467_1280)">
        <path d="M4.12798 11.9652C5.90337 14.0874 8.04054 15.7584 10.4798 16.9407C11.4085 17.3809 12.6506 17.903 14.0343 17.9925C14.1201 17.9963 14.2022 18 14.288 18C15.2167 18 15.9626 17.6792 16.5706 17.0191C16.5743 17.0153 16.5818 17.0079 16.5855 17.0004C16.8018 16.7393 17.048 16.5044 17.3054 16.2545C17.4807 16.0866 17.6597 15.9113 17.8313 15.7323C18.6257 14.9043 18.6257 13.8525 17.8238 13.0506L15.5822 10.809C15.2018 10.4136 14.7467 10.2047 14.2693 10.2047C13.7919 10.2047 13.3331 10.4136 12.9415 10.8052L11.6062 12.1405C11.4831 12.0696 11.3563 12.0062 11.237 11.9465C11.0878 11.8719 10.9498 11.8011 10.8267 11.7228C9.61079 10.9507 8.50677 9.94364 7.45123 8.6494C6.91787 7.97431 6.55981 7.40738 6.30992 6.82926C6.66052 6.51223 6.98874 6.18027 7.30577 5.85578C7.41767 5.74016 7.53329 5.62453 7.64891 5.50891C8.05173 5.10609 8.26806 4.63987 8.26806 4.16618C8.26806 3.6925 8.05546 3.22627 7.64891 2.82346L6.53743 1.71198C6.40689 1.58143 6.28381 1.45462 6.15699 1.32408C5.91083 1.07045 5.65347 0.809366 5.39985 0.574389C5.01568 0.197679 4.56437 0 4.08696 0C3.61327 0 3.15824 0.197679 2.75915 0.578119L1.3642 1.97306C0.856953 2.48031 0.569758 3.09573 0.510081 3.80812C0.439215 4.69954 0.603326 5.64691 1.02852 6.79196C1.68124 8.56361 2.6659 10.2085 4.12798 11.9652ZM1.42015 3.88645C1.46491 3.39039 1.65513 2.97638 2.01319 2.61832L3.40067 1.23083C3.617 1.02196 3.85571 0.9138 4.08696 0.9138C4.31447 0.9138 4.54572 1.02196 4.75832 1.23829C5.00822 1.46954 5.24319 1.71198 5.49682 1.96933C5.62363 2.09988 5.75418 2.23042 5.88472 2.36469L6.9962 3.47617C7.22745 3.70742 7.3468 3.9424 7.3468 4.17364C7.3468 4.40489 7.22745 4.63987 6.9962 4.87111C6.88057 4.98674 6.76495 5.10609 6.64933 5.22172C6.30246 5.57232 5.97796 5.90427 5.6199 6.2213L5.60125 6.23995C5.29168 6.54952 5.34017 6.84418 5.41476 7.06797C5.41849 7.07915 5.42222 7.08661 5.42595 7.0978C5.71315 7.78782 6.11224 8.44426 6.73511 9.22752C7.85405 10.6075 9.03267 11.678 10.3306 12.5023C10.491 12.6067 10.6626 12.6888 10.823 12.7708C10.9722 12.8454 11.1102 12.9163 11.2332 12.9946C11.2482 13.0021 11.2594 13.0095 11.2743 13.017C11.3974 13.0804 11.5167 13.1102 11.6361 13.1102C11.9344 13.1102 12.1284 12.92 12.1918 12.8566L13.5867 11.4617C13.8031 11.2453 14.0381 11.1297 14.2693 11.1297C14.5528 11.1297 14.784 11.305 14.9295 11.4617L17.1785 13.707C17.6261 14.1546 17.6224 14.6395 17.1674 15.1131C17.0107 15.281 16.8466 15.4414 16.6713 15.6092C16.4102 15.8628 16.1379 16.1239 15.8918 16.4186C15.4628 16.8811 14.9519 17.0974 14.2917 17.0974C14.2283 17.0974 14.1611 17.0937 14.0977 17.0899C12.8744 17.0116 11.7368 16.5342 10.8826 16.1276C8.56271 15.005 6.52624 13.4123 4.83665 11.3908C3.44543 9.71612 2.50925 8.15707 1.89011 6.48612C1.50594 5.46042 1.36048 4.63614 1.42015 3.88645Z" fill="#2C2F36"/>
    </g>
    <defs>
        <clipPath id="clip0_1467_1280">
            <rect width="18" height="18" fill="white" transform="translate(0.459961)"/>
        </clipPath>
    </defs>
</svg>
